<svg 
 xmlns="http://www.w3.org/2000/svg"
 xmlns:xlink="http://www.w3.org/1999/xlink"
 width="30px" height="23px">
<path fill-rule="evenodd"  fill="rgb(255, 108, 0)"
 d="M27.000,11.255 L27.000,10.277 L30.000,10.277 L30.000,11.255 L27.000,11.255 ZM26.742,5.943 L29.241,4.475 L29.756,5.314 L27.256,6.783 L26.742,5.943 ZM25.658,12.698 L23.000,13.565 L23.000,19.574 C23.000,20.654 22.103,21.532 21.000,21.532 C19.897,21.532 19.000,20.654 19.000,19.574 L19.000,19.220 L8.222,15.001 L9.451,19.813 L9.953,20.305 C10.181,20.530 10.304,20.826 10.302,21.139 C10.300,21.454 10.173,21.747 9.945,21.968 C9.785,22.122 9.584,22.230 9.364,22.278 C9.359,22.279 9.354,22.280 9.349,22.281 L5.594,22.991 C5.562,22.997 5.531,23.000 5.499,23.000 C5.272,23.000 5.067,22.847 5.013,22.623 L3.076,14.565 C1.316,14.154 -0.000,12.612 -0.000,10.766 C-0.000,8.607 1.794,6.851 4.000,6.851 L7.403,6.851 L19.000,2.311 L19.000,1.957 C19.000,0.878 19.897,-0.000 21.000,-0.000 C22.103,-0.000 23.000,0.878 23.000,1.957 L23.000,7.966 L25.658,8.833 C25.863,8.900 26.000,9.087 26.000,9.298 L26.000,12.234 C26.000,12.445 25.863,12.632 25.658,12.698 ZM7.000,7.830 L4.000,7.830 C2.345,7.830 1.000,9.147 1.000,10.766 C1.000,12.385 2.345,13.702 4.000,13.702 L7.000,13.702 L7.000,7.830 ZM7.109,14.681 L4.131,14.681 L5.877,21.941 L9.150,21.322 C9.185,21.313 9.217,21.296 9.243,21.271 C9.294,21.222 9.302,21.163 9.302,21.133 C9.302,21.103 9.295,21.044 9.245,20.995 L8.647,20.410 C8.583,20.347 8.537,20.268 8.515,20.182 L7.109,14.681 ZM19.000,3.365 L8.000,7.672 L8.000,13.860 L19.000,18.166 L19.000,3.365 ZM22.000,13.213 L22.000,8.319 L22.000,1.957 C22.000,1.418 21.552,0.979 21.000,0.979 C20.448,0.979 20.000,1.418 20.000,1.957 L20.000,2.447 L20.000,2.447 L20.000,19.085 L20.000,19.085 L20.000,19.574 C20.000,20.114 20.448,20.553 21.000,20.553 C21.552,20.553 22.000,20.114 22.000,19.574 L22.000,13.213 ZM25.000,9.650 L23.000,8.998 L23.000,12.533 L25.000,11.881 L25.000,9.650 ZM6.000,10.766 L5.000,10.766 L5.000,8.808 L6.000,8.808 L6.000,10.766 ZM3.000,8.808 L4.000,8.808 L4.000,10.766 L3.000,10.766 L3.000,8.808 ZM29.761,16.218 L29.246,17.058 L26.746,15.590 L27.261,14.750 L29.761,16.218 Z"/>
</svg>