<svg 
 xmlns="http://www.w3.org/2000/svg"
 xmlns:xlink="http://www.w3.org/1999/xlink"
 width="30px" height="29px">
<path fill-rule="evenodd"  fill="rgb(255, 108, 0)"
 d="M27.295,18.307 C25.945,18.307 24.832,17.309 24.629,16.011 L21.262,15.675 C21.348,15.260 21.398,14.828 21.398,14.387 C21.398,14.362 21.394,14.337 21.394,14.312 L24.762,14.646 C25.144,13.609 26.131,12.865 27.295,12.865 C28.789,12.865 30.000,14.083 30.000,15.585 C30.000,17.089 28.789,18.307 27.295,18.307 ZM22.102,5.444 C21.844,5.444 21.596,5.395 21.355,5.326 L18.932,9.429 C18.570,9.153 18.180,8.916 17.764,8.727 L20.180,4.636 C19.695,4.143 19.398,3.468 19.398,2.722 C19.398,1.218 20.607,0.000 22.102,0.000 C23.601,0.000 24.812,1.218 24.812,2.722 C24.812,4.226 23.601,5.444 22.102,5.444 ZM19.851,14.387 C19.851,16.964 17.773,19.053 15.211,19.053 C12.647,19.053 10.569,16.964 10.569,14.387 C10.569,11.810 12.647,9.720 15.211,9.720 C17.773,9.720 19.851,11.810 19.851,14.387 ZM10.279,10.645 L8.457,8.913 C8.041,9.174 7.553,9.332 7.025,9.332 C5.530,9.332 4.317,8.113 4.317,6.610 C4.317,5.106 5.530,3.888 7.025,3.888 C8.521,3.888 9.732,5.106 9.732,6.610 C9.732,7.084 9.601,7.524 9.388,7.912 L11.213,9.646 C10.865,9.943 10.555,10.278 10.279,10.645 ZM4.971,17.113 L9.164,15.701 C9.262,16.154 9.412,16.588 9.601,16.999 L5.395,18.417 C5.400,18.478 5.413,18.535 5.413,18.598 C5.413,20.102 4.200,21.320 2.706,21.320 C1.210,21.320 -0.000,20.102 -0.000,18.598 C-0.000,17.095 1.210,15.877 2.706,15.877 C3.653,15.877 4.486,16.370 4.971,17.113 ZM16.670,23.877 L15.916,20.566 C16.377,20.513 16.820,20.405 17.246,20.257 L17.998,23.567 C19.455,23.610 20.625,24.804 20.621,26.281 C20.621,27.782 19.412,29.000 17.918,29.000 C16.418,29.000 15.209,27.784 15.209,26.281 C15.209,25.230 15.806,24.331 16.670,23.877 Z"/>
</svg>