<svg 
 xmlns="http://www.w3.org/2000/svg"
 xmlns:xlink="http://www.w3.org/1999/xlink"
 width="38px" height="40px">
<path fill-rule="evenodd"  fill="rgb(85, 92, 85)"
 d="M38.000,20.666 L38.000,26.666 C38.000,29.279 37.276,31.640 35.937,33.554 L35.937,37.999 C35.937,39.133 35.072,40.000 33.940,40.000 L1.996,40.000 C0.932,40.000 -0.000,39.133 -0.000,37.999 L-0.000,29.999 C-0.000,29.155 0.543,28.394 1.331,28.114 L1.331,25.883 C0.572,25.611 -0.000,24.887 -0.000,23.999 L-0.000,16.000 C-0.000,15.155 0.543,14.394 1.331,14.114 L1.331,11.883 C0.572,11.611 -0.000,10.887 -0.000,9.999 L-0.000,1.999 C-0.000,0.933 0.865,-0.000 1.997,-0.000 L33.940,-0.000 C35.005,-0.000 35.937,0.866 35.937,1.999 L35.937,9.999 C35.937,10.897 35.394,11.627 34.606,11.892 L34.606,14.116 C35.365,14.388 35.937,15.112 35.937,16.000 L35.937,19.746 C36.399,19.853 36.886,19.939 37.401,19.999 C37.734,20.066 38.000,20.333 38.000,20.666 L38.000,20.666 ZM1.331,29.999 L1.331,37.999 C1.331,38.333 1.597,38.666 1.996,38.666 L33.940,38.666 C34.273,38.666 34.606,38.399 34.606,37.999 L34.606,35.112 C34.332,35.376 34.044,35.629 33.741,35.866 C32.942,36.533 32.010,36.866 31.145,37.200 L30.879,37.266 C30.833,37.290 30.796,37.304 30.763,37.314 L30.613,37.400 L30.240,37.239 L30.081,37.200 C29.215,36.866 28.350,36.533 27.485,35.866 C25.470,34.251 24.104,31.986 23.559,29.333 L1.996,29.333 C1.664,29.333 1.331,29.599 1.331,29.999 ZM23.358,28.000 C23.356,27.986 23.355,27.972 23.354,27.959 C23.293,27.506 23.292,27.054 23.292,26.666 L23.292,25.999 L2.662,25.999 L2.662,28.000 L23.358,28.000 ZM34.606,1.999 C34.606,1.666 34.340,1.333 33.940,1.333 L1.996,1.333 C1.597,1.333 1.331,1.600 1.331,1.999 L1.331,9.999 C1.331,10.333 1.597,10.666 1.996,10.666 L33.940,10.666 C34.273,10.666 34.606,10.399 34.606,9.999 L34.606,1.999 ZM2.662,12.000 L2.662,13.999 L33.275,13.999 L33.275,12.000 L2.662,12.000 ZM34.672,16.000 C34.672,15.666 34.406,15.333 34.007,15.333 L1.996,15.333 C1.664,15.333 1.331,15.600 1.331,16.000 L1.331,23.999 C1.331,24.333 1.597,24.666 1.996,24.666 L23.292,24.666 L23.292,20.666 L23.292,20.066 L23.891,19.999 C26.753,19.666 28.683,18.533 30.280,17.466 L30.679,17.199 L31.079,17.466 C31.844,18.014 32.789,18.606 33.913,19.095 C34.157,19.197 34.410,19.294 34.672,19.384 L34.672,16.000 ZM36.603,21.266 C34.007,20.866 32.144,19.800 30.613,18.799 C30.230,19.049 29.827,19.299 29.396,19.541 C29.181,19.662 28.959,19.781 28.730,19.896 C28.615,19.954 28.498,20.011 28.380,20.068 C28.142,20.180 27.897,20.288 27.643,20.392 C27.135,20.600 26.593,20.789 26.009,20.951 C25.571,21.073 25.110,21.179 24.624,21.266 L24.624,24.666 L24.624,25.999 L24.624,26.666 C24.624,27.185 24.673,27.704 24.730,28.267 C24.980,30.129 25.670,31.817 26.747,33.197 C27.213,33.787 27.750,34.322 28.350,34.800 C28.558,34.966 28.773,35.107 28.996,35.232 C29.219,35.356 29.450,35.465 29.692,35.568 C29.741,35.589 29.790,35.610 29.839,35.630 C30.085,35.731 30.343,35.829 30.613,35.933 C30.863,35.829 31.112,35.731 31.358,35.630 C31.407,35.609 31.456,35.589 31.504,35.568 C31.748,35.465 31.987,35.356 32.217,35.232 C32.447,35.107 32.668,34.966 32.876,34.800 C33.541,34.266 34.207,33.600 34.739,32.799 L35.179,32.163 C36.107,30.579 36.602,28.697 36.602,26.666 L36.603,26.666 L36.603,21.266 ZM30.280,23.200 L27.951,24.399 L27.951,28.666 C27.951,29.066 27.685,29.333 27.285,29.333 C26.886,29.333 26.620,29.066 26.620,28.666 L26.620,23.999 C26.620,23.733 26.753,23.533 27.019,23.399 L29.681,22.066 C30.014,21.933 30.413,22.066 30.546,22.333 C30.679,22.600 30.546,23.066 30.280,23.200 ZM20.630,22.666 C20.231,22.666 19.965,22.400 19.965,22.000 C19.965,21.599 20.231,21.333 20.630,21.333 C21.030,21.333 21.296,21.599 21.296,22.000 C21.296,22.400 21.030,22.666 20.630,22.666 ZM20.630,18.666 L15.306,18.666 C14.907,18.666 14.641,18.400 14.641,18.000 C14.641,17.600 14.907,17.333 15.306,17.333 L20.630,17.333 C21.030,17.333 21.296,17.600 21.296,18.000 C21.296,18.400 21.030,18.666 20.630,18.666 ZM11.313,22.666 L3.993,22.666 C3.594,22.666 3.327,22.400 3.327,22.000 L3.327,18.000 C3.327,17.600 3.594,17.333 3.993,17.333 L11.313,17.333 C11.713,17.333 11.979,17.600 11.979,18.000 L11.979,22.000 C11.979,22.400 11.713,22.666 11.313,22.666 ZM10.648,18.666 L4.658,18.666 L4.658,21.333 L10.648,21.333 L10.648,18.666 ZM15.306,21.333 C15.706,21.333 15.972,21.599 15.972,22.000 C15.972,22.400 15.706,22.666 15.306,22.666 C14.907,22.666 14.641,22.400 14.641,22.000 C14.641,21.599 14.907,21.333 15.306,21.333 ZM16.637,19.333 C17.037,19.333 17.303,19.599 17.303,19.999 C17.303,20.400 17.037,20.666 16.637,20.666 C16.238,20.666 15.972,20.400 15.972,19.999 C15.972,19.599 16.238,19.333 16.637,19.333 ZM17.968,21.333 C18.368,21.333 18.634,21.599 18.634,22.000 C18.634,22.400 18.368,22.666 17.968,22.666 C17.569,22.666 17.303,22.400 17.303,22.000 C17.303,21.599 17.569,21.333 17.968,21.333 ZM19.299,19.333 C19.699,19.333 19.965,19.599 19.965,19.999 C19.965,20.400 19.699,20.666 19.299,20.666 C18.900,20.666 18.634,20.400 18.634,19.999 C18.634,19.599 18.900,19.333 19.299,19.333 Z"/>
</svg>