<svg 
 xmlns="http://www.w3.org/2000/svg"
 xmlns:xlink="http://www.w3.org/1999/xlink"
 width="38px" height="40px">
<path fill-rule="evenodd"  fill="rgb(85, 92, 85)"
 d="M37.374,28.642 L32.809,28.642 C30.864,30.922 28.225,32.473 25.305,33.058 L25.305,36.074 L26.015,36.074 C26.361,36.074 26.642,36.355 26.642,36.701 L26.642,39.373 C26.642,39.719 26.361,40.000 26.015,40.000 L24.679,40.000 L1.963,40.000 L0.626,40.000 C0.280,40.000 -0.000,39.719 -0.000,39.373 L-0.000,36.701 C-0.000,36.355 0.280,36.074 0.626,36.074 L1.336,36.074 L1.336,20.000 C1.336,19.654 1.617,19.373 1.963,19.373 L9.368,19.373 C9.422,18.204 9.628,17.057 9.982,15.949 L3.967,15.949 C3.621,15.949 3.341,15.669 3.341,15.323 L3.341,0.626 C3.341,0.280 3.621,-0.001 3.967,-0.001 L20.002,-0.001 L24.011,-0.001 C24.357,-0.001 24.637,0.280 24.637,0.626 L24.637,6.826 C26.473,7.099 28.254,7.760 29.819,8.757 C31.405,9.766 32.779,11.122 33.812,12.693 L37.374,12.693 C37.720,12.693 38.000,12.973 38.000,13.319 L38.000,24.007 L38.000,28.016 C38.000,28.362 37.719,28.642 37.374,28.642 ZM1.253,37.327 L1.253,38.747 L1.963,38.747 L24.679,38.747 L25.389,38.747 L25.389,37.327 L24.679,37.327 L1.963,37.327 L1.253,37.327 ZM9.980,20.626 L2.589,20.626 L2.589,36.074 L24.053,36.074 L24.053,32.534 L24.053,20.626 L9.980,20.626 ZM19.376,7.589 L19.376,1.252 L4.593,1.252 L4.593,14.697 L10.870,14.697 L19.376,14.697 L19.376,7.589 ZM23.385,7.376 C23.385,7.375 23.385,7.375 23.385,7.374 L23.385,1.252 L20.629,1.252 L20.629,7.589 L20.629,14.697 L23.385,14.697 L23.385,7.376 ZM24.637,8.092 L24.637,15.323 C24.637,15.669 24.357,15.949 24.011,15.949 L20.002,15.949 L11.304,15.949 C10.911,17.052 10.683,18.199 10.623,19.373 L24.679,19.373 C25.025,19.373 25.305,19.654 25.305,20.000 L25.305,31.777 C27.491,31.292 29.492,30.206 31.096,28.642 L29.356,28.642 C29.010,28.642 28.730,28.362 28.730,28.016 L28.730,24.007 L28.730,13.319 C28.730,12.973 29.010,12.692 29.356,12.692 L32.276,12.692 C30.413,10.257 27.658,8.592 24.637,8.092 ZM36.747,13.945 L33.472,13.945 C33.471,13.945 33.471,13.945 33.470,13.945 C33.470,13.945 33.470,13.945 33.469,13.945 L29.982,13.945 L29.982,23.381 L36.747,23.381 L36.747,13.945 ZM36.747,24.634 L29.982,24.634 L29.982,27.390 L32.517,27.390 L36.747,27.390 L36.747,24.634 ZM32.070,26.012 C32.070,25.666 32.351,25.385 32.697,25.385 L34.033,25.385 C34.379,25.385 34.659,25.666 34.659,26.012 C34.659,26.358 34.379,26.638 34.033,26.638 L32.697,26.638 C32.351,26.638 32.070,26.358 32.070,26.012 ZM22.007,6.012 C22.352,6.012 22.633,6.292 22.633,6.638 L22.633,8.643 C22.633,8.989 22.352,9.269 22.007,9.269 C21.661,9.269 21.380,8.989 21.380,8.643 L21.380,6.638 C21.380,6.292 21.661,6.012 22.007,6.012 Z"/>
</svg>