<svg 
 xmlns="http://www.w3.org/2000/svg"
 xmlns:xlink="http://www.w3.org/1999/xlink"
 width="39px" height="40px">
<path fill-rule="evenodd"  fill="rgb(85, 92, 85)"
 d="M9.895,17.286 C10.238,17.286 10.516,17.566 10.516,17.912 L10.516,17.995 C10.516,18.341 10.238,18.622 9.895,18.622 C9.552,18.622 9.274,18.341 9.274,17.995 L9.274,17.912 C9.274,17.566 9.552,17.286 9.895,17.286 ZM9.274,15.908 C9.274,15.562 9.552,15.282 9.895,15.282 C10.238,15.282 10.516,15.562 10.516,15.908 L10.516,15.991 C10.516,16.337 10.238,16.617 9.895,16.617 C9.552,16.617 9.274,16.337 9.274,15.991 L9.274,15.908 ZM1.987,13.987 L1.987,11.983 C1.987,11.637 2.265,11.357 2.608,11.357 L10.557,11.357 C10.900,11.357 11.178,11.637 11.178,11.983 L11.178,13.987 C11.178,14.333 10.900,14.613 10.557,14.613 L2.608,14.613 C2.265,14.613 1.987,14.333 1.987,13.987 ZM3.229,13.361 L9.936,13.361 L9.936,12.609 L3.229,12.609 L3.229,13.361 ZM5.962,26.012 L5.962,24.676 C5.962,24.330 6.240,24.049 6.583,24.049 C6.926,24.049 7.204,24.330 7.204,24.676 L7.204,26.012 C7.204,26.358 6.926,26.638 6.583,26.638 C6.240,26.638 5.962,26.358 5.962,26.012 ZM8.250,25.421 C8.573,25.307 8.928,25.477 9.042,25.804 C9.141,26.084 9.191,26.379 9.191,26.680 C9.191,28.131 8.021,29.311 6.583,29.311 C5.145,29.311 3.975,28.131 3.975,26.680 C3.975,26.379 4.025,26.084 4.123,25.804 C4.237,25.477 4.592,25.307 4.915,25.421 C5.239,25.537 5.408,25.894 5.294,26.220 C5.243,26.368 5.216,26.522 5.216,26.680 C5.216,27.439 5.830,28.058 6.583,28.058 C7.336,28.058 7.949,27.439 7.949,26.680 C7.949,26.522 7.923,26.368 7.871,26.220 C7.757,25.894 7.927,25.537 8.250,25.421 ZM37.717,10.605 L32.417,10.605 C31.710,10.605 31.134,10.024 31.134,9.311 L31.134,5.929 L27.739,5.929 L27.739,19.373 L31.134,19.373 L31.134,15.991 C31.134,15.277 31.709,14.697 32.417,14.697 L37.716,14.697 C38.424,14.697 39.000,15.277 39.000,15.991 L39.000,24.008 C39.000,24.721 38.424,25.302 37.716,25.302 L32.417,25.302 C31.709,25.302 31.134,24.721 31.134,24.008 L31.134,20.626 L27.739,20.626 L27.739,34.070 L31.134,34.070 L31.134,30.688 C31.134,29.975 31.709,29.394 32.417,29.394 L37.716,29.394 C38.424,29.394 39.000,29.975 39.000,30.688 L39.000,38.706 C39.000,39.419 38.424,39.999 37.716,39.999 L32.417,39.999 C31.709,39.999 31.134,39.419 31.134,38.706 L31.134,35.323 L27.118,35.323 C26.775,35.323 26.497,35.043 26.497,34.697 L26.497,20.626 L23.648,20.626 C23.332,21.435 22.901,22.256 22.316,23.046 C21.724,23.847 21.013,24.564 20.204,25.177 C19.986,25.342 19.677,25.342 19.458,25.177 C18.649,24.564 17.939,23.847 17.346,23.046 C16.761,22.256 16.330,21.435 16.014,20.626 L13.166,20.626 L13.166,30.020 C13.166,31.102 12.293,31.982 11.220,31.982 L1.946,31.982 C0.873,31.982 -0.000,31.102 -0.000,30.020 L-0.000,26.680 C-0.000,26.334 0.278,26.053 0.621,26.053 C0.964,26.053 1.242,26.334 1.242,26.680 L1.242,30.020 C1.242,30.412 1.558,30.730 1.946,30.730 L11.220,30.730 C11.608,30.730 11.924,30.412 11.924,30.020 L11.924,9.979 C11.924,9.587 11.608,9.269 11.220,9.269 L1.946,9.269 C1.558,9.269 1.242,9.587 1.242,9.979 L1.242,23.340 C1.242,23.686 0.964,23.966 0.621,23.966 C0.278,23.966 0.000,23.686 0.000,23.340 L0.000,9.979 C0.000,8.897 0.873,8.016 1.946,8.016 L11.220,8.016 C12.293,8.016 13.166,8.897 13.166,9.979 L13.166,19.373 L15.609,19.373 C15.182,17.739 15.170,16.248 15.237,15.279 C15.271,14.794 15.843,14.530 16.229,14.822 C16.854,15.294 17.509,15.365 17.844,15.365 C18.625,15.365 19.191,15.025 19.459,14.822 C19.680,14.655 19.983,14.655 20.204,14.822 C20.472,15.025 21.038,15.365 21.819,15.365 C22.153,15.365 22.809,15.294 23.433,14.822 C23.820,14.530 24.391,14.794 24.425,15.279 C24.493,16.248 24.481,17.739 24.053,19.373 L26.497,19.373 L26.497,5.302 C26.497,4.956 26.775,4.676 27.118,4.676 L31.134,4.676 L31.134,1.294 C31.134,0.580 31.710,-0.001 32.417,-0.001 L37.717,-0.001 C38.424,-0.001 39.000,0.580 39.000,1.294 L39.000,9.311 C39.000,10.024 38.424,10.605 37.717,10.605 ZM32.376,24.008 C32.376,24.031 32.394,24.049 32.417,24.049 L37.717,24.049 C37.739,24.049 37.758,24.031 37.758,24.008 L37.758,15.991 C37.758,15.968 37.739,15.949 37.717,15.949 L32.417,15.949 C32.394,15.949 32.376,15.968 32.376,15.991 L32.376,24.008 ZM32.376,38.705 C32.376,38.728 32.394,38.747 32.417,38.747 L37.717,38.747 C37.739,38.747 37.758,38.728 37.758,38.705 L37.758,30.688 C37.758,30.665 37.739,30.647 37.717,30.647 L32.417,30.647 C32.394,30.647 32.376,30.665 32.376,30.688 L32.376,38.705 ZM21.819,16.617 C20.962,16.617 20.283,16.338 19.831,16.073 C19.380,16.338 18.700,16.617 17.844,16.617 C17.528,16.617 17.017,16.575 16.450,16.359 C16.474,17.956 16.828,20.250 18.342,22.297 C18.770,22.877 19.270,23.407 19.831,23.878 C20.392,23.407 20.892,22.877 21.321,22.297 C22.835,20.250 23.189,17.956 23.213,16.359 C22.645,16.575 22.134,16.617 21.819,16.617 ZM37.758,1.294 C37.758,1.271 37.739,1.252 37.717,1.252 L32.417,1.252 C32.394,1.252 32.376,1.271 32.376,1.294 L32.376,9.311 C32.376,9.334 32.394,9.352 32.417,9.352 L37.717,9.352 C37.739,9.352 37.758,9.334 37.758,9.311 L37.758,1.294 ZM36.475,7.264 L36.392,7.264 C36.049,7.264 35.771,6.984 35.771,6.638 C35.771,6.292 36.049,6.012 36.392,6.012 L36.475,6.012 C36.818,6.012 37.096,6.292 37.096,6.638 C37.096,6.984 36.817,7.264 36.475,7.264 ZM36.392,3.925 L33.742,3.925 C33.399,3.925 33.121,3.644 33.121,3.298 C33.121,2.952 33.399,2.672 33.742,2.672 L36.392,2.672 C36.735,2.672 37.013,2.952 37.013,3.298 C37.013,3.644 36.735,3.925 36.392,3.925 ZM33.742,6.012 L33.825,6.012 C34.168,6.012 34.446,6.292 34.446,6.638 C34.446,6.984 34.168,7.264 33.825,7.264 L33.742,7.264 C33.399,7.264 33.121,6.984 33.121,6.638 C33.121,6.292 33.399,6.012 33.742,6.012 ZM20.494,19.290 L20.452,19.290 L20.452,19.999 C20.452,20.345 20.174,20.626 19.831,20.626 C19.488,20.626 19.210,20.345 19.210,19.999 L19.210,19.290 L19.169,19.290 C18.826,19.290 18.548,19.009 18.548,18.663 C18.548,18.317 18.826,18.037 19.169,18.037 L20.494,18.037 C20.837,18.037 21.115,18.317 21.115,18.663 C21.115,19.009 20.837,19.290 20.494,19.290 ZM33.742,32.066 L36.392,32.066 C36.735,32.066 37.013,32.347 37.013,32.693 C37.013,33.039 36.735,33.319 36.392,33.319 L33.742,33.319 C33.399,33.319 33.121,33.039 33.121,32.693 C33.121,32.347 33.399,32.066 33.742,32.066 ZM33.742,35.406 L33.825,35.406 C34.168,35.406 34.446,35.687 34.446,36.033 C34.446,36.379 34.168,36.659 33.825,36.659 L33.742,36.659 C33.399,36.659 33.121,36.379 33.121,36.033 C33.121,35.687 33.399,35.406 33.742,35.406 ZM36.392,35.406 L36.475,35.406 C36.818,35.406 37.096,35.687 37.096,36.033 C37.096,36.379 36.817,36.659 36.475,36.659 L36.392,36.659 C36.049,36.659 35.771,36.379 35.771,36.033 C35.771,35.687 36.049,35.406 36.392,35.406 ZM33.742,17.369 L36.392,17.369 C36.735,17.369 37.013,17.649 37.013,17.995 C37.013,18.341 36.735,18.622 36.392,18.622 L33.742,18.622 C33.399,18.622 33.121,18.341 33.121,17.995 C33.121,17.649 33.399,17.369 33.742,17.369 ZM33.742,20.709 L33.825,20.709 C34.168,20.709 34.446,20.990 34.446,21.336 C34.446,21.682 34.168,21.962 33.825,21.962 L33.742,21.962 C33.399,21.962 33.121,21.682 33.121,21.336 C33.121,20.990 33.399,20.709 33.742,20.709 ZM36.392,20.709 L36.475,20.709 C36.818,20.709 37.096,20.990 37.096,21.336 C37.096,21.682 36.817,21.962 36.475,21.962 L36.392,21.962 C36.049,21.962 35.771,21.682 35.771,21.336 C35.771,20.990 36.049,20.709 36.392,20.709 ZM21.675,12.795 C21.901,13.023 21.917,13.400 21.709,13.645 C21.476,13.918 21.050,13.935 20.797,13.681 C20.539,13.420 20.196,13.277 19.831,13.277 C19.466,13.277 19.123,13.420 18.865,13.681 C18.623,13.925 18.229,13.925 17.987,13.681 C17.744,13.436 17.744,13.039 17.987,12.795 C18.479,12.298 19.134,12.024 19.831,12.024 C20.528,12.024 21.183,12.298 21.675,12.795 ZM16.113,11.791 C15.871,11.547 15.871,11.150 16.113,10.905 C17.106,9.904 18.427,9.352 19.831,9.352 C21.236,9.352 22.556,9.904 23.549,10.905 C23.932,11.291 23.653,11.975 23.110,11.975 C22.951,11.975 22.792,11.914 22.671,11.791 C21.913,11.026 20.904,10.605 19.831,10.605 C18.759,10.605 17.750,11.026 16.992,11.791 C16.749,12.036 16.356,12.036 16.113,11.791 ZM24.545,9.902 C23.286,8.632 21.612,7.933 19.831,7.933 C18.051,7.933 16.377,8.632 15.118,9.902 C14.875,10.146 14.482,10.146 14.240,9.902 C13.997,9.657 13.997,9.260 14.240,9.016 C15.733,7.509 17.719,6.680 19.831,6.680 C21.943,6.680 23.929,7.509 25.423,9.016 C25.649,9.244 25.664,9.620 25.456,9.866 C25.224,10.139 24.797,10.156 24.545,9.902 Z"/>
</svg>