<svg 
 xmlns="http://www.w3.org/2000/svg"
 xmlns:xlink="http://www.w3.org/1999/xlink"
 width="30px" height="26px">
<path fill-rule="evenodd"  fill="rgb(255, 108, 0)"
 d="M26.880,22.736 L20.269,22.736 L20.269,25.442 C20.269,25.609 20.194,25.767 20.065,25.873 C19.826,26.070 19.472,26.037 19.273,25.799 L16.687,22.736 L15.602,22.736 C14.095,22.736 12.482,21.922 12.482,19.640 L12.482,13.854 C12.483,13.684 12.494,13.514 12.515,13.346 L6.792,13.346 L3.981,16.649 C3.873,16.777 3.714,16.851 3.547,16.851 C3.236,16.850 2.985,16.600 2.985,16.292 L2.985,13.324 C1.467,13.173 0.000,12.225 0.000,9.931 L0.000,3.415 C0.000,0.898 1.754,-0.000 3.441,-0.000 L16.125,-0.000 C17.812,-0.000 19.583,0.898 19.583,3.420 L19.583,9.937 C19.582,10.216 19.554,10.495 19.498,10.768 L26.880,10.768 C28.393,10.768 30.007,11.572 30.001,13.854 L30.001,19.640 C30.001,21.135 29.180,22.736 26.880,22.736 ZM18.441,3.426 C18.441,1.423 16.991,1.121 16.125,1.121 L3.441,1.121 C2.575,1.121 1.124,1.417 1.124,3.420 L1.124,9.931 C1.124,11.929 2.575,12.230 3.441,12.230 L3.548,12.230 C3.858,12.230 4.110,12.480 4.110,12.788 L4.110,14.769 L6.072,12.442 C6.179,12.315 6.338,12.241 6.505,12.241 L12.825,12.241 L12.847,12.230 C13.416,11.265 14.483,10.700 15.608,10.768 L18.340,10.768 C18.414,10.496 18.448,10.214 18.441,9.931 L18.441,3.426 ZM28.876,13.865 C28.891,13.736 28.891,13.605 28.876,13.476 C28.768,12.489 27.874,11.777 26.880,11.884 L15.608,11.884 C15.481,11.871 15.354,11.870 15.228,11.883 C14.233,11.984 13.510,12.867 13.612,13.854 L13.612,19.640 C13.598,19.769 13.598,19.900 13.612,20.029 C13.720,21.015 14.614,21.728 15.608,21.620 L16.940,21.620 C17.107,21.620 17.266,21.694 17.373,21.821 L19.133,23.908 L19.133,22.178 C19.133,21.870 19.385,21.620 19.695,21.620 L26.886,21.620 C27.017,21.634 27.148,21.634 27.278,21.620 C28.272,21.513 28.990,20.626 28.882,19.640 L28.876,13.865 ZM21.618,20.320 C21.432,20.324 21.251,20.258 21.112,20.136 C20.966,20.004 20.887,19.813 20.898,19.617 C20.898,19.614 20.898,19.610 20.898,19.606 C20.901,19.221 21.219,18.911 21.607,18.914 C21.798,18.910 21.982,18.982 22.118,19.115 C22.255,19.245 22.330,19.425 22.326,19.612 C22.337,19.808 22.258,19.998 22.113,20.131 C21.978,20.254 21.801,20.321 21.618,20.320 ZM21.927,17.843 C21.866,17.985 21.722,18.074 21.567,18.066 C21.416,18.077 21.274,17.992 21.213,17.854 C21.132,17.645 21.085,17.425 21.073,17.201 L20.921,14.970 C20.891,14.531 20.876,14.216 20.876,14.027 C20.863,13.805 20.938,13.587 21.084,13.419 C21.229,13.266 21.435,13.187 21.646,13.201 C21.860,13.188 22.062,13.296 22.169,13.480 C22.275,13.736 22.323,14.012 22.309,14.289 C22.320,14.499 22.320,14.709 22.309,14.919 L22.068,17.207 C22.060,17.426 22.012,17.641 21.927,17.843 ZM11.436,6.070 C11.301,6.201 11.061,6.418 10.716,6.723 C10.635,6.795 10.558,6.872 10.486,6.952 C10.436,7.006 10.392,7.066 10.356,7.131 C10.328,7.182 10.306,7.236 10.289,7.292 C10.278,7.343 10.250,7.443 10.221,7.577 C10.221,7.579 10.221,7.582 10.221,7.584 C10.202,7.839 9.978,8.031 9.721,8.012 C9.585,8.015 9.454,7.965 9.356,7.873 C9.247,7.759 9.192,7.605 9.204,7.449 C9.190,7.057 9.333,6.675 9.603,6.388 C9.758,6.226 9.921,6.071 10.092,5.925 C10.272,5.769 10.401,5.652 10.480,5.574 C10.560,5.495 10.628,5.404 10.682,5.306 C10.738,5.209 10.767,5.100 10.767,4.988 C10.768,4.774 10.676,4.571 10.514,4.430 C10.336,4.274 10.104,4.192 9.867,4.201 C9.617,4.181 9.371,4.266 9.187,4.436 C9.016,4.634 8.890,4.866 8.816,5.116 C8.707,5.433 8.520,5.591 8.254,5.591 C8.103,5.590 7.960,5.530 7.854,5.423 C7.754,5.331 7.695,5.202 7.691,5.066 C7.703,4.766 7.805,4.477 7.984,4.235 C8.169,3.949 8.427,3.716 8.731,3.560 C9.078,3.379 9.464,3.287 9.856,3.292 C10.226,3.285 10.593,3.361 10.930,3.515 C11.233,3.652 11.491,3.873 11.672,4.151 C11.839,4.399 11.927,4.690 11.925,4.988 C11.929,5.203 11.879,5.416 11.779,5.607 C11.689,5.778 11.573,5.934 11.436,6.070 ZM9.749,8.391 L9.755,8.397 C9.759,8.397 9.762,8.397 9.766,8.397 C10.108,8.400 10.382,8.677 10.379,9.016 C10.391,9.190 10.320,9.359 10.188,9.474 C10.068,9.583 9.911,9.643 9.749,9.641 C9.583,9.643 9.423,9.583 9.299,9.474 C9.166,9.358 9.095,9.186 9.108,9.011 C9.105,8.845 9.173,8.685 9.294,8.570 C9.415,8.451 9.579,8.387 9.749,8.391 Z"/>
</svg>