<svg 
 xmlns="http://www.w3.org/2000/svg"
 xmlns:xlink="http://www.w3.org/1999/xlink"
 width="80px" height="80px">
<path fill-rule="evenodd"  fill="rgb(85, 92, 85)"
 d="M68.284,68.284 C60.729,75.838 50.684,80.000 40.000,80.000 C33.302,80.000 26.675,78.311 20.834,75.118 C20.282,74.816 20.079,74.123 20.381,73.571 C20.683,73.018 21.376,72.815 21.928,73.117 C27.434,76.128 33.683,77.720 40.000,77.720 C50.075,77.720 59.548,73.796 66.672,66.672 C73.797,59.547 77.720,50.075 77.720,39.999 C77.720,28.541 72.600,17.837 63.674,10.632 C63.184,10.236 63.107,9.519 63.503,9.028 C63.898,8.539 64.616,8.463 65.105,8.858 C74.571,16.498 80.000,27.848 80.000,39.999 C80.000,50.684 75.839,60.728 68.284,68.284 ZM65.899,14.100 C66.345,14.545 66.345,15.267 65.899,15.712 L64.606,17.006 C64.383,17.228 64.092,17.339 63.800,17.339 C63.508,17.339 63.216,17.228 62.994,17.006 C62.549,16.560 62.549,15.839 62.994,15.394 L64.287,14.100 C64.732,13.655 65.454,13.655 65.899,14.100 ZM72.497,55.396 C72.344,55.396 72.189,55.365 72.040,55.300 L70.364,54.565 C69.788,54.312 69.526,53.640 69.779,53.063 C70.032,52.486 70.704,52.225 71.280,52.478 L72.956,53.212 C73.532,53.465 73.795,54.138 73.541,54.714 C73.354,55.142 72.936,55.396 72.497,55.396 ZM71.770,28.828 C71.634,28.881 71.494,28.906 71.356,28.906 C70.900,28.906 70.470,28.631 70.294,28.180 C70.065,27.594 70.355,26.933 70.942,26.704 L72.646,26.039 C73.233,25.811 73.893,26.100 74.122,26.687 C74.351,27.273 74.061,27.934 73.475,28.163 L71.770,28.828 ZM76.627,39.999 C76.627,40.629 76.117,41.139 75.487,41.139 L73.658,41.139 C73.028,41.139 72.518,40.629 72.518,39.999 C72.518,39.370 73.028,38.859 73.658,38.859 L75.487,38.859 C76.117,38.859 76.627,39.370 76.627,39.999 ZM64.606,62.993 L65.899,64.286 C66.344,64.732 66.344,65.454 65.899,65.899 C65.677,66.121 65.385,66.233 65.093,66.233 C64.802,66.233 64.510,66.121 64.287,65.899 L62.994,64.605 C62.549,64.160 62.549,63.438 62.994,62.993 C63.439,62.548 64.161,62.548 64.606,62.993 ZM53.295,70.942 L53.960,72.646 C54.189,73.232 53.899,73.893 53.313,74.122 C53.176,74.175 53.036,74.200 52.899,74.200 C52.443,74.200 52.012,73.925 51.836,73.475 L51.171,71.770 C50.942,71.183 51.232,70.522 51.819,70.294 C52.406,70.065 53.066,70.355 53.295,70.942 ZM41.140,73.658 L41.140,75.487 C41.140,76.117 40.630,76.627 40.000,76.627 C39.370,76.627 38.860,76.117 38.860,75.487 L38.860,73.658 C38.860,73.028 39.370,72.518 40.000,72.518 C40.630,72.518 41.140,73.028 41.140,73.658 ZM26.936,69.778 C27.512,70.031 27.775,70.703 27.522,71.280 L26.787,72.955 C26.599,73.383 26.181,73.637 25.742,73.637 C25.589,73.637 25.434,73.606 25.285,73.541 C24.709,73.288 24.446,72.616 24.699,72.039 L25.434,70.364 C25.687,69.787 26.359,69.525 26.936,69.778 ZM62.266,62.266 C56.319,68.214 48.411,71.489 40.000,71.489 C31.589,71.489 23.681,68.213 17.734,62.266 C5.456,49.988 5.456,30.011 17.734,17.733 C23.681,11.785 31.589,8.510 40.000,8.510 C48.411,8.510 56.319,11.785 62.266,17.733 C74.544,30.011 74.544,49.988 62.266,62.266 ZM60.654,19.345 C55.137,13.828 47.802,10.790 40.000,10.790 C32.198,10.790 24.862,13.828 19.346,19.345 C7.957,30.734 7.957,49.265 19.346,60.654 C24.862,66.171 32.198,69.209 40.000,69.209 C47.802,69.209 55.137,66.171 60.654,60.654 C72.043,49.265 72.043,30.734 60.654,19.345 ZM50.870,39.650 C53.478,42.076 54.747,45.217 54.747,49.252 C54.747,53.134 53.620,56.314 51.399,58.704 C49.544,60.701 46.934,62.067 43.808,62.686 L43.808,62.739 C43.809,64.717 42.200,66.326 40.222,66.326 C38.297,66.326 36.721,64.801 36.639,62.896 C29.782,62.046 25.253,58.120 25.253,54.754 C25.253,52.662 27.016,50.136 29.206,50.136 C30.383,50.136 31.275,50.894 32.308,51.771 C33.373,52.678 34.654,53.767 36.635,54.390 L36.635,42.204 C32.463,40.658 26.341,37.954 26.341,29.963 C26.341,23.682 30.077,19.334 36.635,17.909 L36.635,17.774 C36.635,15.797 38.244,14.188 40.222,14.188 C42.102,14.188 43.649,15.643 43.797,17.486 C45.879,17.642 47.909,18.041 49.499,18.614 C52.937,19.854 53.658,21.655 53.658,22.948 C53.658,24.836 52.293,27.566 49.826,27.566 C48.987,27.566 48.257,27.202 47.413,26.779 C46.501,26.323 45.411,25.778 43.809,25.490 L43.809,35.645 C46.328,36.610 48.870,37.790 50.870,39.650 ZM41.840,23.303 C42.079,23.082 42.401,22.969 42.726,22.994 C45.508,23.206 47.215,24.059 48.461,24.683 C49.040,24.973 49.540,25.222 49.826,25.222 C50.752,25.222 51.315,23.643 51.315,22.948 C51.315,21.376 47.323,19.920 42.599,19.767 C41.967,19.747 41.465,19.229 41.465,18.597 L41.465,17.774 C41.465,17.088 40.907,16.531 40.222,16.531 C39.537,16.531 38.979,17.088 38.979,17.774 L38.979,18.878 C38.979,19.451 38.565,19.939 38.000,20.034 C35.292,20.484 33.032,21.493 31.463,22.951 C29.620,24.665 28.685,27.023 28.685,29.962 C28.685,36.296 33.189,38.458 38.208,40.283 C38.671,40.452 38.979,40.892 38.979,41.385 L38.979,55.874 C38.979,56.219 38.827,56.547 38.563,56.770 C38.299,56.992 37.950,57.088 37.609,57.029 C34.181,56.440 32.221,54.774 30.789,53.557 C30.166,53.027 29.522,52.479 29.206,52.479 C28.514,52.479 27.597,53.776 27.597,54.754 C27.597,55.757 28.623,57.105 30.212,58.188 C32.241,59.570 34.969,60.450 37.893,60.665 C38.506,60.710 38.979,61.220 38.979,61.834 L38.979,62.739 C38.979,63.425 39.537,63.983 40.222,63.983 C40.907,63.983 41.465,63.425 41.465,62.739 L41.465,61.697 C41.465,61.114 41.894,60.620 42.471,60.537 C48.876,59.624 52.403,55.616 52.403,49.251 C52.403,45.904 51.379,43.324 49.274,41.366 C47.279,39.512 44.592,38.427 42.231,37.557 C41.771,37.387 41.465,36.948 41.465,36.457 L41.465,24.163 C41.465,23.836 41.601,23.525 41.840,23.303 ZM37.807,35.829 C37.648,35.829 37.488,35.796 37.337,35.730 C35.747,35.034 34.686,34.335 33.898,33.468 C32.896,32.364 32.388,30.981 32.388,29.357 C32.388,26.398 34.208,24.296 37.513,23.437 C37.864,23.346 38.237,23.422 38.524,23.644 C38.811,23.866 38.979,24.209 38.979,24.571 L38.979,34.657 C38.979,35.052 38.780,35.421 38.449,35.637 C38.255,35.764 38.032,35.829 37.807,35.829 ZM36.635,26.256 C34.732,27.263 34.732,28.790 34.732,29.357 C34.732,30.819 35.273,31.829 36.635,32.721 L36.635,26.256 ZM43.121,42.266 C45.718,43.445 48.700,45.379 48.700,49.917 C48.700,53.597 46.640,56.097 42.899,56.955 C42.812,56.975 42.724,56.984 42.637,56.984 C42.374,56.984 42.116,56.897 41.906,56.729 C41.627,56.507 41.465,56.170 41.465,55.813 L41.465,43.334 C41.465,42.935 41.667,42.565 42.002,42.349 C42.337,42.134 42.758,42.102 43.121,42.266 ZM43.809,54.192 C45.520,53.398 46.356,51.988 46.356,49.917 C46.356,47.639 45.384,46.298 43.809,45.282 L43.809,54.192 ZM54.715,6.458 C55.291,6.711 55.554,7.383 55.301,7.959 L54.566,9.635 C54.378,10.063 53.960,10.317 53.521,10.317 C53.368,10.317 53.213,10.286 53.064,10.221 C52.487,9.968 52.225,9.296 52.478,8.719 L53.213,7.044 C53.466,6.467 54.138,6.206 54.715,6.458 ZM41.140,4.512 L41.140,6.342 C41.140,6.971 40.630,7.482 40.000,7.482 C39.370,7.482 38.860,6.971 38.860,6.342 L38.860,4.512 C38.860,3.883 39.370,3.372 40.000,3.372 C40.630,3.372 41.140,3.883 41.140,4.512 ZM28.164,6.524 L28.829,8.229 C29.058,8.815 28.768,9.476 28.181,9.705 C28.045,9.758 27.905,9.784 27.767,9.784 C27.311,9.784 26.881,9.508 26.705,9.058 L26.040,7.353 C25.811,6.767 26.101,6.106 26.687,5.877 C27.274,5.649 27.935,5.938 28.164,6.524 ZM15.712,14.100 L17.006,15.394 C17.451,15.839 17.451,16.560 17.006,17.006 C16.784,17.228 16.492,17.339 16.200,17.339 C15.908,17.339 15.617,17.228 15.394,17.006 L14.101,15.712 C13.655,15.267 13.655,14.545 14.101,14.100 C14.546,13.655 15.267,13.655 15.712,14.100 ZM9.706,51.819 C9.935,52.405 9.644,53.066 9.058,53.295 L7.354,53.960 C7.218,54.013 7.077,54.038 6.940,54.038 C6.484,54.038 6.053,53.762 5.877,53.312 C5.648,52.726 5.939,52.065 6.525,51.836 L8.229,51.171 C8.816,50.943 9.477,51.232 9.706,51.819 ZM7.482,39.999 C7.482,40.629 6.972,41.139 6.342,41.139 L4.512,41.139 C3.883,41.139 3.373,40.629 3.373,39.999 C3.373,39.370 3.883,38.859 4.512,38.859 L6.342,38.859 C6.972,38.859 7.482,39.370 7.482,39.999 ZM7.960,24.699 L9.636,25.434 C10.212,25.687 10.474,26.359 10.221,26.936 C10.034,27.363 9.616,27.617 9.177,27.617 C9.024,27.617 8.869,27.587 8.720,27.522 L7.044,26.786 C6.468,26.533 6.205,25.860 6.458,25.284 C6.712,24.708 7.384,24.446 7.960,24.699 ZM57.816,6.743 C52.377,3.823 46.216,2.279 40.000,2.279 C29.924,2.279 20.452,6.203 13.328,13.327 C6.203,20.452 2.280,29.924 2.280,39.999 C2.280,51.337 7.312,61.970 16.085,69.172 C16.572,69.571 16.643,70.289 16.243,70.776 C16.018,71.050 15.691,71.193 15.362,71.193 C15.107,71.193 14.851,71.108 14.639,70.934 C5.336,63.298 -0.000,52.022 -0.000,39.999 C-0.000,29.315 4.161,19.270 11.716,11.715 C19.271,4.160 29.316,-0.000 40.000,-0.000 C46.591,-0.000 53.125,1.637 58.895,4.735 C59.449,5.033 59.658,5.724 59.360,6.278 C59.062,6.833 58.371,7.041 57.816,6.743 ZM14.907,66.233 C14.615,66.233 14.323,66.121 14.101,65.899 C13.655,65.454 13.655,64.732 14.101,64.286 L15.394,62.993 C15.839,62.548 16.561,62.548 17.006,62.993 C17.451,63.438 17.451,64.160 17.006,64.605 L15.712,65.899 C15.490,66.121 15.198,66.233 14.907,66.233 Z"/>
</svg>