<svg 
 xmlns="http://www.w3.org/2000/svg"
 xmlns:xlink="http://www.w3.org/1999/xlink"
 width="40px" height="40px">
<path fill-rule="evenodd"  fill="rgb(144, 95, 54)"
 d="M39.374,20.626 L37.315,20.626 C36.992,29.684 29.684,36.991 20.626,37.315 L20.626,39.373 C20.626,39.719 20.346,40.000 20.000,40.000 C19.654,40.000 19.374,39.719 19.374,39.373 L19.374,37.315 C10.316,36.991 3.008,29.684 2.685,20.626 L0.626,20.626 C0.280,20.626 -0.000,20.345 -0.000,20.000 C-0.000,19.654 0.280,19.373 0.626,19.373 L2.685,19.373 C3.008,10.316 10.316,3.008 19.374,2.684 L19.374,0.626 C19.374,0.280 19.654,-0.001 20.000,-0.001 C20.346,-0.001 20.626,0.280 20.626,0.626 L20.626,2.684 C29.684,3.008 36.992,10.316 37.315,19.373 L39.374,19.373 C39.720,19.373 40.000,19.654 40.000,20.000 C40.000,20.345 39.720,20.626 39.374,20.626 ZM19.374,36.061 L19.374,33.304 C12.527,32.985 7.014,27.473 6.696,20.626 L3.938,20.626 C4.260,28.993 11.007,35.739 19.374,36.061 ZM19.374,3.938 C11.007,4.260 4.260,11.006 3.938,19.373 L6.696,19.373 C7.014,12.526 12.527,7.014 19.374,6.695 L19.374,3.938 ZM20.000,9.269 C19.654,9.269 19.374,8.989 19.374,8.643 L19.374,7.949 C13.217,8.265 8.266,13.217 7.949,19.373 L8.643,19.373 C8.989,19.373 9.269,19.654 9.269,20.000 C9.269,20.345 8.989,20.626 8.643,20.626 L7.949,20.626 C8.266,26.782 13.217,31.734 19.374,32.050 L19.374,31.356 C19.374,31.010 19.654,30.730 20.000,30.730 C20.346,30.730 20.626,31.010 20.626,31.356 L20.626,32.050 C26.782,31.734 31.734,26.782 32.051,20.626 L31.357,20.626 C31.011,20.626 30.731,20.345 30.731,20.000 C30.731,19.654 31.011,19.373 31.357,19.373 L32.051,19.373 C31.734,13.217 26.782,8.265 20.626,7.949 L20.626,8.643 C20.626,8.989 20.346,9.269 20.000,9.269 ZM20.626,3.938 L20.626,6.695 C27.473,7.014 32.986,12.526 33.304,19.373 L36.062,19.373 C35.739,11.006 28.993,4.260 20.626,3.938 ZM33.304,20.626 C32.986,27.473 27.473,32.985 20.626,33.304 L20.626,36.061 C28.993,35.739 35.739,28.993 36.062,20.626 L33.304,20.626 ZM33.159,13.416 C33.474,13.273 33.845,13.415 33.987,13.730 C34.290,14.405 34.545,15.109 34.747,15.821 C34.841,16.154 34.647,16.500 34.314,16.594 C34.257,16.610 34.200,16.618 34.144,16.618 C33.870,16.618 33.619,16.438 33.541,16.162 C33.357,15.508 33.122,14.863 32.844,14.243 C32.702,13.928 32.843,13.557 33.159,13.416 ZM31.338,11.273 C31.158,11.273 30.979,11.195 30.855,11.045 C29.480,9.381 27.717,8.036 25.756,7.156 C25.441,7.014 25.300,6.643 25.442,6.328 C25.583,6.012 25.954,5.872 26.269,6.013 C28.405,6.972 30.325,8.436 31.821,10.248 C32.041,10.514 32.003,10.909 31.737,11.130 C31.620,11.226 31.479,11.273 31.338,11.273 ZM29.979,20.000 C29.979,25.502 25.502,29.979 20.000,29.979 C14.497,29.979 10.021,25.502 10.021,20.000 C10.021,14.497 14.497,10.021 20.000,10.021 C25.502,10.021 29.979,14.497 29.979,20.000 ZM27.728,15.949 L26.074,15.949 C26.390,17.027 26.577,18.189 26.626,19.373 L28.704,19.373 C28.616,18.145 28.273,16.986 27.728,15.949 ZM27.728,24.050 C28.273,23.013 28.616,21.854 28.704,20.626 L26.626,20.626 C26.577,21.810 26.390,22.972 26.074,24.050 L27.728,24.050 ZM26.925,25.302 L25.633,25.302 C25.276,26.163 24.837,26.925 24.336,27.571 C25.342,26.992 26.222,26.219 26.925,25.302 ZM23.293,20.626 C23.270,21.812 23.184,22.975 23.041,24.050 L24.763,24.050 C25.110,22.988 25.318,21.822 25.372,20.626 L23.293,20.626 ZM25.372,19.373 C25.318,18.177 25.110,17.010 24.763,15.949 L23.041,15.949 C23.184,17.024 23.270,18.186 23.293,19.373 L25.372,19.373 ZM24.263,25.302 L22.839,25.302 C22.673,26.170 22.419,27.191 22.043,28.058 C22.908,27.473 23.678,26.526 24.263,25.302 ZM20.000,28.726 C20.290,28.726 21.043,27.845 21.562,25.302 L18.438,25.302 C18.957,27.845 19.710,28.726 20.000,28.726 ZM15.664,27.571 C15.163,26.925 14.724,26.163 14.366,25.302 L13.074,25.302 C13.778,26.219 14.658,26.992 15.664,27.571 ZM16.707,20.626 L14.628,20.626 C14.682,21.822 14.889,22.988 15.237,24.050 L16.959,24.050 C16.815,22.975 16.730,21.812 16.707,20.626 ZM16.959,15.949 L15.237,15.949 C14.890,17.011 14.682,18.177 14.628,19.373 L16.707,19.373 C16.730,18.186 16.815,17.024 16.959,15.949 ZM12.272,24.050 L13.926,24.050 C13.610,22.972 13.423,21.810 13.374,20.626 L11.296,20.626 C11.384,21.854 11.727,23.013 12.272,24.050 ZM12.272,15.949 C11.727,16.986 11.384,18.145 11.296,19.373 L13.374,19.373 C13.423,18.189 13.610,17.027 13.926,15.949 L12.272,15.949 ZM13.074,14.697 L14.366,14.697 C14.724,13.836 15.163,13.074 15.664,12.428 C14.658,13.007 13.778,13.780 13.074,14.697 ZM15.737,14.697 L17.161,14.697 C17.327,13.829 17.581,12.808 17.956,11.941 C17.092,12.526 16.322,13.473 15.737,14.697 ZM17.161,25.302 L15.737,25.302 C16.322,26.526 17.092,27.473 17.956,28.058 C17.581,27.191 17.327,26.170 17.161,25.302 ZM18.223,24.050 L21.777,24.050 C21.927,22.984 22.016,21.819 22.039,20.626 L17.960,20.626 C17.984,21.819 18.073,22.984 18.223,24.050 ZM20.000,11.273 C19.710,11.273 18.957,12.154 18.438,14.697 L21.562,14.697 C21.043,12.154 20.290,11.273 20.000,11.273 ZM21.777,15.949 L18.223,15.949 C18.073,17.015 17.984,18.180 17.960,19.373 L22.040,19.373 C22.016,18.180 21.927,17.015 21.777,15.949 ZM22.043,11.941 C22.419,12.808 22.673,13.829 22.839,14.697 L24.263,14.697 C23.678,13.473 22.908,12.526 22.043,11.941 ZM24.336,12.428 C24.837,13.074 25.276,13.836 25.634,14.697 L26.926,14.697 C26.222,13.780 25.342,13.007 24.336,12.428 Z"/>
</svg>