<svg 
 xmlns="http://www.w3.org/2000/svg"
 xmlns:xlink="http://www.w3.org/1999/xlink"
 width="39px" height="40px">
<path fill-rule="evenodd"  fill="rgb(144, 95, 54)"
 d="M26.072,16.589 L26.529,16.589 L26.826,16.589 L27.283,16.589 C28.536,16.589 29.556,17.599 29.556,18.839 L29.556,19.537 C29.556,20.717 28.634,21.687 27.467,21.779 L27.467,22.456 C27.467,22.888 27.113,23.238 26.678,23.238 C26.242,23.238 25.889,22.888 25.889,22.456 L25.889,21.786 C24.732,21.758 23.799,20.818 23.799,19.666 C23.799,19.235 24.153,18.885 24.588,18.885 C25.024,18.885 25.377,19.235 25.377,19.666 C25.377,19.974 25.630,20.225 25.941,20.225 L27.283,20.225 C27.666,20.225 27.978,19.916 27.978,19.537 L27.978,18.839 C27.978,18.460 27.666,18.151 27.283,18.151 L26.826,18.151 L26.529,18.151 L26.072,18.151 C24.819,18.151 23.799,17.142 23.799,15.902 L23.799,15.204 C23.799,14.024 24.721,13.055 25.889,12.962 L25.889,12.284 C25.889,11.853 26.242,11.504 26.678,11.504 C27.113,11.504 27.467,11.853 27.467,12.284 L27.467,12.955 C28.623,12.983 29.556,13.922 29.556,15.074 C29.556,15.506 29.202,15.856 28.767,15.856 C28.331,15.856 27.978,15.506 27.978,15.074 C27.978,14.766 27.725,14.516 27.414,14.516 L26.072,14.516 C25.689,14.516 25.377,14.825 25.377,15.204 L25.377,15.902 C25.377,16.281 25.689,16.589 26.072,16.589 ZM36.416,23.237 C35.980,23.237 35.627,22.888 35.627,22.456 C35.627,22.025 35.980,21.675 36.416,21.675 C36.851,21.675 37.205,22.025 37.205,22.456 C37.205,22.888 36.851,23.237 36.416,23.237 ZM38.796,28.765 C38.506,29.507 37.941,30.092 37.206,30.414 L27.036,34.860 C25.002,35.749 22.694,35.697 20.702,34.718 L16.980,32.887 C15.410,32.114 13.589,32.073 11.986,32.775 L11.917,32.805 C12.025,33.199 12.003,33.616 11.851,34.004 C11.665,34.479 11.306,34.855 10.839,35.066 L1.145,39.916 C1.032,39.971 0.910,40.000 0.789,40.000 C0.645,40.000 0.502,39.961 0.375,39.884 C0.142,39.741 -0.000,39.490 -0.000,39.218 L-0.000,25.949 C-0.000,25.639 0.185,25.358 0.472,25.234 L5.465,23.067 C5.941,22.859 6.473,22.847 6.960,23.034 C7.339,23.180 7.654,23.433 7.876,23.761 L11.741,22.071 C12.965,21.536 14.266,21.274 15.570,21.286 L15.570,17.117 C15.570,12.579 18.876,8.791 23.228,7.990 L23.228,5.643 L21.265,2.138 C21.155,1.940 21.136,1.705 21.214,1.492 C21.292,1.280 21.458,1.111 21.671,1.030 L24.230,0.052 C24.416,-0.019 24.622,-0.017 24.807,0.056 L26.416,0.693 L28.230,0.046 C28.423,-0.022 28.636,-0.014 28.824,0.071 L31.269,1.170 C31.472,1.262 31.626,1.434 31.694,1.645 C31.762,1.856 31.736,2.085 31.623,2.276 L29.630,5.652 L29.630,8.006 C33.941,8.840 37.205,12.609 37.205,17.118 L37.205,19.154 C37.205,19.585 36.851,19.935 36.416,19.935 C35.980,19.935 35.627,19.585 35.627,19.154 L35.627,17.118 C35.627,12.860 32.128,9.395 27.828,9.395 L24.946,9.395 C20.646,9.395 17.148,12.860 17.148,17.118 L17.148,21.436 C17.666,21.530 18.179,21.669 18.683,21.852 L26.169,24.574 C27.636,25.107 28.418,26.733 27.912,28.198 C27.501,29.387 26.371,30.139 25.165,30.139 C24.858,30.139 24.547,30.090 24.241,29.988 L18.452,28.049 C18.039,27.910 17.817,27.467 17.957,27.058 C18.097,26.650 18.544,26.430 18.957,26.569 L24.746,28.508 C25.434,28.738 26.184,28.372 26.419,27.692 C26.650,27.025 26.293,26.284 25.625,26.041 L18.139,23.318 C16.258,22.635 14.212,22.699 12.378,23.501 L8.542,25.178 L11.301,31.367 L11.348,31.346 C13.382,30.456 15.691,30.508 17.682,31.488 L21.405,33.319 C22.975,34.091 24.795,34.132 26.399,33.431 L36.568,28.985 C36.918,28.832 37.187,28.553 37.325,28.200 C37.463,27.847 37.454,27.462 37.299,27.116 C37.145,26.770 36.864,26.503 36.507,26.367 C36.153,26.231 35.766,26.239 35.418,26.390 L30.454,28.656 C30.059,28.836 29.590,28.666 29.408,28.274 C29.225,27.882 29.398,27.418 29.794,27.237 L34.763,24.968 C34.767,24.966 34.771,24.965 34.775,24.963 C35.510,24.641 36.328,24.622 37.077,24.910 C37.827,25.198 38.418,25.757 38.743,26.485 C39.067,27.212 39.086,28.022 38.796,28.765 ZM24.806,7.833 L24.946,7.833 L27.828,7.833 L28.052,7.833 L28.052,6.222 L24.806,6.222 L24.806,7.833 ZM28.388,4.659 L29.820,2.234 L28.463,1.624 L26.668,2.263 C26.487,2.328 26.288,2.325 26.108,2.254 L24.509,1.621 L23.085,2.164 L24.482,4.659 L28.388,4.659 ZM10.373,33.153 L6.780,25.094 C6.779,25.094 6.779,25.094 6.779,25.094 C6.779,25.094 6.779,25.094 6.779,25.094 L6.598,24.688 C6.544,24.565 6.444,24.512 6.390,24.491 C6.335,24.470 6.225,24.443 6.101,24.497 L1.578,26.460 L1.578,33.041 L3.100,32.302 C3.492,32.111 3.964,32.271 4.156,32.658 C4.348,33.046 4.187,33.514 3.796,33.704 L1.578,34.783 L1.578,37.949 L10.143,33.664 C10.155,33.658 10.168,33.652 10.180,33.646 C10.371,33.563 10.457,33.342 10.373,33.153 ZM6.201,32.553 C5.765,32.553 5.412,32.204 5.412,31.772 C5.412,31.341 5.765,30.991 6.201,30.991 C6.637,30.991 6.990,31.341 6.990,31.772 C6.990,32.204 6.637,32.553 6.201,32.553 Z"/>
</svg>