<svg 
 xmlns="http://www.w3.org/2000/svg"
 xmlns:xlink="http://www.w3.org/1999/xlink"
 width="53px" height="41px">
<path fill-rule="evenodd"  fill="rgb(255, 108, 0)"
 d="M47.479,41.000 L5.520,41.000 C2.477,41.000 -0.001,38.539 -0.001,35.513 L-0.001,31.123 C-0.001,28.099 2.477,25.637 5.520,25.637 L13.249,25.637 L13.249,11.371 C13.249,10.766 13.744,10.274 14.353,10.274 C14.963,10.274 15.458,10.766 15.458,11.372 L15.458,25.637 L47.479,25.637 C50.522,25.637 53.000,28.099 53.000,31.123 L53.000,35.513 C53.000,38.537 50.522,41.000 47.479,41.000 ZM50.792,31.123 C50.792,29.308 49.305,27.831 47.479,27.831 L5.520,27.831 C3.694,27.831 2.207,29.308 2.207,31.123 L2.207,35.513 L2.207,35.513 C2.207,37.328 3.693,38.805 5.520,38.805 L47.479,38.805 C49.305,38.805 50.792,37.328 50.792,35.513 L50.792,31.123 ZM45.271,34.416 C44.661,34.416 44.166,33.924 44.166,33.318 C44.166,32.712 44.661,32.221 45.271,32.221 C45.881,32.221 46.375,32.712 46.375,33.318 C46.375,33.924 45.881,34.416 45.271,34.416 ZM38.646,34.416 C38.036,34.416 37.541,33.924 37.541,33.318 C37.541,32.712 38.036,32.221 38.646,32.221 C39.255,32.221 39.750,32.712 39.750,33.318 C39.750,33.924 39.255,34.416 38.646,34.416 ZM32.020,34.416 C31.411,34.416 30.916,33.924 30.916,33.318 C30.916,32.712 31.411,32.221 32.020,32.221 C32.630,32.221 33.125,32.712 33.125,33.318 C33.125,33.924 32.630,34.416 32.020,34.416 ZM25.395,34.416 C24.785,34.416 24.291,33.924 24.291,33.318 C24.291,32.712 24.785,32.221 25.395,32.221 C26.005,32.221 26.499,32.712 26.499,33.318 C26.499,33.924 26.005,34.416 25.395,34.416 ZM18.770,34.416 L7.728,34.416 C7.119,34.416 6.624,33.924 6.624,33.318 C6.624,32.713 7.119,32.221 7.728,32.221 L18.770,32.221 C19.380,32.221 19.874,32.713 19.874,33.318 C19.874,33.924 19.380,34.416 18.770,34.416 ZM23.724,21.781 C23.441,21.781 23.158,21.673 22.944,21.460 C22.513,21.032 22.513,20.337 22.944,19.909 C27.681,15.203 27.681,7.546 22.944,2.838 C22.513,2.410 22.513,1.715 22.944,1.287 C23.375,0.859 24.075,0.859 24.505,1.287 C30.101,6.848 30.101,15.899 24.505,21.460 C24.289,21.673 24.006,21.781 23.724,21.781 ZM21.383,18.357 C21.166,18.570 20.884,18.677 20.601,18.677 C20.318,18.677 20.036,18.570 19.821,18.357 C19.391,17.929 19.391,17.233 19.821,16.805 C22.834,13.810 22.834,8.937 19.821,5.942 C19.391,5.514 19.391,4.818 19.821,4.390 C20.252,3.962 20.952,3.962 21.383,4.390 C25.256,8.242 25.256,14.505 21.383,18.357 ZM18.258,15.252 C18.041,15.464 17.759,15.572 17.476,15.572 C17.193,15.572 16.911,15.466 16.696,15.252 C16.266,14.824 16.266,14.128 16.696,13.700 C17.322,13.077 17.666,12.251 17.666,11.371 C17.666,10.491 17.322,9.666 16.697,9.043 C16.266,8.615 16.266,7.919 16.697,7.491 C17.127,7.063 17.827,7.063 18.258,7.491 C19.300,8.527 19.874,9.906 19.874,11.371 C19.874,12.837 19.300,14.216 18.258,15.252 ZM12.013,15.252 C11.796,15.465 11.514,15.572 11.231,15.572 C10.948,15.572 10.666,15.467 10.449,15.252 C9.407,14.216 8.833,12.837 8.833,11.372 C8.832,9.906 9.407,8.527 10.449,7.492 C10.880,7.063 11.580,7.063 12.010,7.492 C12.441,7.919 12.441,8.615 12.010,9.043 C11.385,9.666 11.041,10.492 11.041,11.372 C11.041,12.252 11.385,13.079 12.013,13.700 C12.443,14.128 12.443,14.824 12.013,15.252 ZM8.888,16.805 C9.318,17.233 9.318,17.929 8.888,18.357 C8.671,18.570 8.389,18.678 8.106,18.678 C7.823,18.678 7.543,18.570 7.326,18.357 C3.453,14.505 3.453,8.242 7.326,4.390 C7.757,3.962 8.457,3.962 8.888,4.390 C9.318,4.818 9.318,5.514 8.888,5.942 C5.875,8.937 5.875,13.810 8.888,16.805 ZM5.765,19.909 C6.196,20.337 6.196,21.032 5.765,21.460 C5.549,21.673 5.266,21.781 4.983,21.781 C4.701,21.781 4.418,21.673 4.204,21.460 C-1.392,15.899 -1.392,6.848 4.204,1.287 C4.634,0.859 5.334,0.859 5.765,1.287 C6.196,1.715 6.196,2.411 5.765,2.838 C1.028,7.544 1.028,15.201 5.765,19.909 Z"/>
</svg>