<svg 
 xmlns="http://www.w3.org/2000/svg"
 xmlns:xlink="http://www.w3.org/1999/xlink"
 width="30px" height="24px">
<path fill-rule="evenodd"  fill="rgb(255, 108, 0)"
 d="M27.343,24.000 L2.657,24.000 C1.191,23.997 0.003,22.788 -0.000,21.296 L-0.000,2.704 C0.003,1.212 1.191,0.003 2.657,-0.000 L25.119,-0.000 C25.361,-0.000 25.557,0.199 25.557,0.446 L25.557,3.418 L29.556,3.418 C29.558,3.417 29.560,3.417 29.562,3.417 C29.804,3.418 30.000,3.617 30.000,3.863 L30.000,21.296 C29.997,22.788 28.809,23.997 27.343,24.000 ZM24.681,21.296 L24.681,0.909 L2.657,0.909 C1.674,0.913 0.879,1.722 0.876,2.722 L0.876,21.302 C0.879,22.301 1.674,23.111 2.657,23.114 L25.370,23.108 C24.928,22.612 24.682,21.966 24.681,21.296 ZM29.095,4.315 L25.562,4.315 L25.562,21.302 C25.562,21.322 25.562,21.342 25.562,21.361 C25.579,22.346 26.376,23.131 27.343,23.114 C28.316,23.095 29.095,22.286 29.095,21.296 L29.095,4.315 ZM3.614,8.279 L21.265,8.279 C21.507,8.279 21.703,8.479 21.703,8.725 C21.703,8.971 21.507,9.171 21.265,9.171 L3.614,9.171 C3.372,9.171 3.176,8.971 3.176,8.725 C3.176,8.479 3.372,8.279 3.614,8.279 ZM3.614,11.893 L19.315,11.893 C19.557,11.893 19.753,12.093 19.753,12.339 C19.753,12.585 19.557,12.784 19.315,12.784 L3.614,12.784 C3.372,12.784 3.176,12.585 3.176,12.339 C3.176,12.093 3.372,11.893 3.614,11.893 ZM3.614,14.199 L19.315,14.199 C19.557,14.199 19.753,14.399 19.753,14.645 C19.753,14.891 19.557,15.091 19.315,15.091 L3.614,15.091 C3.372,15.091 3.176,14.891 3.176,14.645 C3.176,14.399 3.372,14.199 3.614,14.199 ZM3.614,16.499 L19.315,16.499 C19.557,16.499 19.753,16.699 19.753,16.945 C19.753,17.191 19.557,17.391 19.315,17.391 L3.614,17.391 C3.372,17.391 3.176,17.191 3.176,16.945 C3.176,16.699 3.372,16.499 3.614,16.499 ZM3.614,18.805 L19.315,18.805 C19.557,18.805 19.753,19.005 19.753,19.251 C19.753,19.497 19.557,19.697 19.315,19.697 L3.614,19.697 C3.372,19.697 3.176,19.497 3.176,19.251 C3.176,19.005 3.372,18.805 3.614,18.805 ZM19.385,6.841 C18.835,6.810 18.311,6.597 17.890,6.235 C17.763,6.126 17.742,5.935 17.843,5.801 C17.950,5.670 18.141,5.651 18.270,5.759 C18.585,6.031 18.978,6.192 19.391,6.217 C19.650,6.222 19.905,6.145 20.121,5.997 C20.268,5.905 20.362,5.745 20.372,5.569 C20.373,5.502 20.355,5.436 20.319,5.379 C20.275,5.307 20.215,5.246 20.144,5.201 C19.894,5.058 19.621,4.963 19.338,4.921 C19.077,4.877 18.821,4.799 18.579,4.689 C18.359,4.591 18.170,4.430 18.036,4.226 C17.947,4.079 17.901,3.910 17.902,3.738 C17.913,3.388 18.086,3.064 18.369,2.865 C18.667,2.655 19.022,2.545 19.385,2.550 C19.853,2.549 20.306,2.717 20.664,3.025 C20.798,3.120 20.835,3.307 20.745,3.447 C20.741,3.455 20.736,3.463 20.730,3.471 C20.638,3.601 20.459,3.631 20.331,3.536 C20.077,3.288 19.737,3.152 19.385,3.156 C19.152,3.152 18.923,3.223 18.731,3.358 C18.602,3.439 18.519,3.578 18.509,3.732 C18.506,3.791 18.520,3.849 18.550,3.899 C18.592,3.960 18.646,4.012 18.708,4.053 C18.932,4.188 19.180,4.276 19.438,4.315 C19.717,4.368 19.990,4.456 20.249,4.576 C20.485,4.682 20.688,4.853 20.833,5.070 C20.924,5.222 20.973,5.397 20.973,5.575 C20.963,5.949 20.776,6.294 20.471,6.502 C20.153,6.729 19.773,6.848 19.385,6.841 ZM15.327,6.639 C15.321,6.658 15.311,6.677 15.298,6.692 L15.298,6.728 L15.257,6.728 C15.239,6.764 15.204,6.764 15.204,6.764 L15.158,6.764 L15.017,6.764 L14.977,6.764 C14.956,6.757 14.938,6.745 14.924,6.728 L14.883,6.728 L14.883,6.692 C14.880,6.675 14.880,6.657 14.883,6.639 L14.112,4.790 L13.348,6.639 L13.348,6.692 L13.313,6.728 L13.278,6.728 L13.231,6.764 C13.215,6.759 13.199,6.759 13.184,6.764 L13.038,6.764 L12.997,6.764 C12.977,6.756 12.960,6.744 12.945,6.728 C12.904,6.728 12.904,6.728 12.904,6.728 L12.904,6.692 C12.893,6.675 12.883,6.657 12.875,6.639 L11.140,3.162 C11.109,3.026 11.166,2.886 11.281,2.811 C11.431,2.715 11.629,2.760 11.724,2.912 L12.892,5.676 L13.645,3.845 C13.696,3.721 13.817,3.640 13.949,3.643 C14.080,3.644 14.200,3.723 14.253,3.845 L15.006,5.676 L16.174,2.912 C16.246,2.746 16.435,2.669 16.600,2.740 C16.759,2.811 16.833,2.999 16.763,3.162 L15.327,6.639 ZM10.411,3.328 L8.805,3.328 L8.805,4.422 L10.171,4.422 C10.317,4.442 10.432,4.559 10.452,4.707 C10.476,4.890 10.350,5.057 10.171,5.082 L8.805,5.082 L8.805,6.187 L10.411,6.187 C10.557,6.207 10.671,6.324 10.691,6.473 C10.715,6.655 10.590,6.822 10.411,6.847 L8.478,6.847 C8.476,6.847 8.474,6.847 8.472,6.847 C8.295,6.844 8.154,6.695 8.157,6.514 L8.157,2.995 C8.157,2.815 8.301,2.669 8.478,2.669 L10.411,2.669 C10.587,2.672 10.729,2.816 10.732,2.995 C10.729,3.176 10.588,3.322 10.411,3.328 ZM6.808,6.847 C6.715,6.845 6.627,6.802 6.569,6.728 L6.539,6.692 L4.659,4.041 L4.659,6.520 C4.656,6.697 4.518,6.841 4.344,6.847 C4.334,6.848 4.324,6.848 4.314,6.848 C4.137,6.844 3.996,6.695 4.000,6.514 L4.000,3.043 C3.995,2.936 4.043,2.833 4.128,2.770 C4.270,2.667 4.468,2.698 4.572,2.841 L6.493,5.504 L6.493,3.049 C6.496,2.873 6.635,2.731 6.808,2.728 C6.982,2.731 7.123,2.872 7.129,3.049 L7.129,6.520 C7.126,6.699 6.984,6.844 6.808,6.847 Z"/>
</svg>