<svg 
 xmlns="http://www.w3.org/2000/svg"
 xmlns:xlink="http://www.w3.org/1999/xlink"
 width="33px" height="40px">
<path fill-rule="evenodd"  fill="rgb(255, 108, 0)"
 d="M27.578,40.000 L5.422,40.000 C2.432,40.000 -0.000,37.598 -0.000,34.645 L-0.000,20.170 C-0.000,17.527 1.949,15.332 4.500,14.898 L4.500,10.740 C4.500,4.818 9.883,-0.001 16.500,-0.001 C23.116,-0.001 28.500,4.818 28.500,10.740 L28.500,14.898 C31.051,15.332 33.000,17.527 33.000,20.169 L33.000,34.645 C33.000,37.598 30.568,40.000 27.578,40.000 ZM27.000,10.740 C27.000,5.635 22.290,1.481 16.500,1.481 C10.710,1.481 6.000,5.635 6.000,10.740 L6.000,14.814 L27.000,14.814 L27.000,10.740 ZM31.500,20.169 C31.500,18.033 29.740,16.296 27.578,16.296 L5.422,16.296 C3.259,16.296 1.500,18.033 1.500,20.169 L1.500,34.645 C1.500,36.780 3.259,38.518 5.422,38.518 L27.578,38.518 C29.740,38.518 31.500,36.780 31.500,34.645 L31.500,20.169 ZM16.500,31.111 C14.845,31.111 13.500,29.782 13.500,28.148 L13.500,23.703 C13.500,22.069 14.845,20.740 16.500,20.740 C18.154,20.740 19.500,22.069 19.500,23.703 L19.500,28.148 C19.500,29.782 18.154,31.111 16.500,31.111 ZM18.000,23.703 C18.000,22.886 17.327,22.222 16.500,22.222 C15.673,22.222 15.000,22.886 15.000,23.703 L15.000,28.148 C15.000,28.965 15.673,29.629 16.500,29.629 C17.327,29.629 18.000,28.965 18.000,28.148 L18.000,23.703 Z"/>
</svg>