<svg 
 xmlns="http://www.w3.org/2000/svg"
 xmlns:xlink="http://www.w3.org/1999/xlink"
 width="41px" height="40px">
<path fill-rule="evenodd"  fill="rgb(93, 189, 83)"
 d="M40.812,28.942 L35.256,23.475 C35.122,23.343 34.934,23.276 34.745,23.293 L29.430,23.769 C29.281,23.782 29.142,23.846 29.035,23.950 L28.522,24.456 L22.582,18.611 L28.664,12.628 L29.660,13.608 C29.785,13.731 29.949,13.793 30.113,13.793 C30.277,13.793 30.441,13.731 30.566,13.608 L34.673,9.568 C34.727,9.514 34.771,9.452 34.803,9.383 L37.218,4.154 C37.329,3.915 37.277,3.634 37.088,3.448 L35.156,1.547 C34.967,1.361 34.681,1.310 34.438,1.418 L29.123,3.795 C29.053,3.826 28.989,3.870 28.935,3.924 L24.829,7.964 C24.579,8.210 24.579,8.609 24.829,8.855 L25.825,9.835 L19.743,15.819 L16.142,12.276 L16.655,11.771 C16.761,11.666 16.826,11.528 16.840,11.382 L17.323,6.153 C17.340,5.967 17.273,5.782 17.138,5.650 L11.582,0.184 C11.332,-0.062 10.926,-0.062 10.676,0.184 L8.260,2.561 C8.010,2.807 8.010,3.206 8.260,3.452 L12.397,7.522 L7.989,11.859 L3.852,7.789 C3.602,7.543 3.196,7.543 2.946,7.789 L0.530,10.166 C0.280,10.412 0.280,10.811 0.530,11.057 L6.086,16.524 C6.207,16.642 6.370,16.708 6.539,16.708 C6.558,16.708 6.578,16.707 6.597,16.705 L11.912,16.230 C12.061,16.217 12.201,16.153 12.307,16.049 L12.820,15.543 L16.422,19.087 L13.928,21.540 L13.173,20.797 C12.988,20.615 12.708,20.562 12.468,20.664 L9.097,22.085 C9.097,22.085 9.096,22.085 9.096,22.085 L9.086,22.090 C9.081,22.092 9.076,22.095 9.071,22.097 C9.058,22.103 9.045,22.109 9.032,22.115 C9.024,22.120 9.017,22.124 9.009,22.129 C8.999,22.135 8.989,22.140 8.979,22.147 C8.969,22.154 8.959,22.161 8.950,22.168 C8.943,22.174 8.936,22.178 8.929,22.184 C8.918,22.193 8.907,22.204 8.896,22.214 C8.892,22.217 8.888,22.220 8.885,22.223 L8.878,22.231 C8.877,22.231 8.876,22.232 8.876,22.233 L1.407,29.580 C1.407,29.580 1.407,29.581 1.407,29.581 L1.396,29.591 C1.392,29.595 1.389,29.599 1.385,29.603 C1.376,29.613 1.366,29.623 1.357,29.633 C1.351,29.641 1.345,29.649 1.338,29.658 C1.332,29.666 1.326,29.674 1.320,29.682 C1.312,29.694 1.305,29.705 1.298,29.717 C1.295,29.721 1.292,29.726 1.289,29.731 L1.282,29.743 C1.282,29.743 1.282,29.743 1.282,29.744 L0.081,31.870 C-0.057,32.115 -0.014,32.423 0.188,32.621 L5.503,37.850 C5.626,37.971 5.790,38.034 5.956,38.034 C6.062,38.034 6.169,38.009 6.267,37.955 L8.441,36.767 C8.446,36.764 8.451,36.761 8.456,36.758 C8.468,36.751 8.479,36.744 8.490,36.737 C8.499,36.731 8.507,36.724 8.516,36.718 C8.524,36.712 8.532,36.707 8.540,36.700 C8.550,36.691 8.561,36.682 8.571,36.672 C8.575,36.669 8.579,36.665 8.583,36.662 L8.593,36.651 C8.593,36.651 8.593,36.651 8.594,36.651 L16.072,29.294 C16.080,29.286 16.087,29.277 16.095,29.269 C16.100,29.263 16.105,29.258 16.110,29.252 C16.112,29.250 16.114,29.248 16.115,29.246 C16.131,29.227 16.146,29.207 16.159,29.186 C16.162,29.182 16.164,29.177 16.167,29.173 C16.181,29.150 16.193,29.127 16.204,29.103 C16.205,29.101 16.206,29.099 16.207,29.097 L16.211,29.087 C16.212,29.087 16.212,29.085 16.212,29.085 L17.657,25.769 C17.760,25.532 17.706,25.258 17.521,25.076 L16.766,24.333 L19.260,21.880 L25.200,27.724 L24.687,28.229 C24.581,28.333 24.516,28.471 24.502,28.617 L24.019,33.846 C24.002,34.032 24.069,34.217 24.204,34.348 L29.760,39.815 C29.885,39.938 30.049,39.999 30.213,39.999 C30.377,39.999 30.541,39.938 30.666,39.815 L33.081,37.439 C33.332,37.192 33.332,36.793 33.081,36.547 L28.945,32.477 L33.353,28.140 L37.490,32.210 C37.740,32.456 38.146,32.456 38.396,32.210 L40.812,29.833 C41.062,29.587 41.062,29.187 40.812,28.942 ZM29.759,4.895 L34.564,2.746 L35.869,4.031 L33.685,8.757 L30.113,12.271 L29.117,11.291 L27.184,9.389 L26.188,8.409 L29.759,4.895 ZM26.731,10.727 L27.758,11.736 L21.676,17.720 L20.649,16.710 L26.731,10.727 ZM12.367,14.207 L11.565,14.996 L6.780,15.424 L1.889,10.611 L3.399,9.126 L7.536,13.196 C7.786,13.442 8.191,13.442 8.441,13.196 L13.756,7.968 C14.006,7.721 14.006,7.323 13.756,7.077 L9.619,3.007 L11.129,1.521 L16.020,6.333 L15.585,11.041 L14.783,11.830 L12.367,14.207 ZM9.338,23.561 L9.882,24.095 L3.299,30.571 L2.755,30.037 L9.338,23.561 ZM4.990,32.235 L4.205,31.463 L10.788,24.986 L11.573,25.759 L4.990,32.235 ZM12.478,26.650 L13.263,27.422 L6.681,33.899 L5.896,33.126 L12.478,26.650 ZM6.067,36.622 L1.436,32.066 L1.997,31.073 L4.537,33.572 L7.077,36.071 L6.067,36.622 ZM8.130,35.325 L7.587,34.790 L14.169,28.314 L14.713,28.848 L8.130,35.325 ZM15.403,27.745 L14.622,26.977 L12.936,25.317 C12.934,25.316 12.933,25.314 12.932,25.313 C12.930,25.312 12.929,25.310 12.927,25.309 L11.241,23.649 L10.460,22.882 L12.574,21.991 L13.475,22.877 L15.407,24.778 L16.309,25.665 L15.403,27.745 ZM15.860,23.441 L14.834,22.431 L17.327,19.978 L18.354,20.988 L15.860,23.441 ZM19.713,20.542 L17.780,18.641 L13.726,14.652 L15.236,13.167 L19.290,17.156 L21.223,19.057 L21.223,19.057 L27.616,25.347 L26.106,26.832 L19.713,20.542 ZM37.944,30.873 L33.807,26.803 C33.556,26.556 33.151,26.556 32.901,26.803 L27.586,32.031 C27.336,32.277 27.336,32.677 27.586,32.922 L31.723,36.992 L30.213,38.478 L25.322,33.666 L25.757,28.959 L26.559,28.169 L28.975,25.792 C28.975,25.792 28.976,25.792 28.976,25.792 L29.778,25.003 L34.562,24.575 L39.454,29.387 L37.944,30.873 Z"/>
</svg>