<svg 
 xmlns="http://www.w3.org/2000/svg"
 xmlns:xlink="http://www.w3.org/1999/xlink"
 width="40px" height="40px">
<path fill-rule="evenodd"  fill="rgb(93, 189, 83)"
 d="M34.142,34.141 C30.364,37.918 25.342,39.998 20.000,39.998 C14.658,39.998 9.635,37.918 5.858,34.141 C2.080,30.363 -0.000,25.341 -0.000,19.998 C-0.000,14.656 2.080,9.634 5.858,5.856 C9.635,2.079 14.658,-0.001 20.000,-0.001 C25.342,-0.001 30.364,2.079 34.142,5.856 C37.920,9.634 40.000,14.656 40.000,19.998 C40.000,25.341 37.920,30.363 34.142,34.141 ZM20.000,1.173 C9.619,1.173 1.174,9.618 1.174,19.998 C1.174,30.379 9.619,38.825 20.000,38.825 C30.381,38.825 38.826,30.379 38.826,19.998 C38.826,9.618 30.381,1.173 20.000,1.173 ZM27.770,22.827 C27.881,22.522 28.218,22.365 28.523,22.476 L31.851,23.687 C32.110,23.782 32.272,24.052 32.232,24.324 C32.189,24.609 31.938,24.827 31.651,24.827 C31.584,24.827 31.516,24.815 31.450,24.791 L28.121,23.579 C27.817,23.468 27.659,23.131 27.770,22.827 ZM28.352,29.181 L25.847,26.676 C25.618,26.447 25.618,26.075 25.847,25.846 C26.076,25.616 26.448,25.616 26.677,25.846 L29.182,28.350 C29.396,28.564 29.410,28.917 29.213,29.146 C28.994,29.403 28.591,29.419 28.352,29.181 ZM20.026,33.110 L20.000,33.110 C12.770,33.110 6.888,27.228 6.888,19.998 C6.888,12.768 12.770,6.887 20.000,6.887 C23.488,6.887 26.771,8.241 29.244,10.700 C31.716,13.158 33.089,16.431 33.111,19.917 C33.111,20.073 33.050,20.223 32.940,20.334 C32.830,20.444 32.680,20.507 32.523,20.507 L29.392,20.507 C29.070,20.507 28.808,20.247 28.805,19.925 C28.766,15.110 24.816,11.192 20.000,11.192 C15.144,11.192 11.194,15.143 11.194,19.998 C11.194,24.854 15.144,28.804 19.999,28.805 L20.026,28.804 C20.350,28.804 20.613,29.067 20.613,29.392 L20.613,32.522 C20.613,32.847 20.350,33.110 20.026,33.110 ZM19.439,29.963 C14.195,29.671 10.019,25.314 10.019,19.998 C10.019,14.495 14.497,10.017 20.000,10.017 C22.651,10.017 25.148,11.046 27.030,12.914 C28.771,14.643 29.799,16.904 29.958,19.333 L31.918,19.333 C31.571,13.065 26.343,8.061 20.000,8.061 C13.418,8.061 8.063,13.416 8.063,19.998 C8.063,26.392 13.116,31.629 19.439,31.923 L19.439,29.963 ZM22.828,27.769 C23.133,27.657 23.470,27.815 23.581,28.120 L24.792,31.448 C24.896,31.733 24.758,32.060 24.482,32.185 C24.174,32.323 23.804,32.166 23.689,31.850 L22.477,28.521 C22.366,28.217 22.523,27.879 22.828,27.769 ZM20.000,22.464 C18.640,22.464 17.534,21.358 17.534,19.998 C17.534,18.792 18.406,17.785 19.552,17.574 L19.925,16.473 C19.955,16.384 20.005,16.303 20.073,16.238 L23.349,13.068 C23.538,12.886 23.835,12.852 24.061,12.988 C24.279,13.119 24.389,13.386 24.327,13.633 L23.220,18.056 C23.197,18.146 23.153,18.230 23.091,18.300 L22.323,19.174 C22.415,19.432 22.466,19.710 22.466,19.998 C22.466,21.358 21.359,22.464 20.000,22.464 ZM20.000,18.706 C19.288,18.706 18.708,19.286 18.708,19.998 C18.708,20.710 19.288,21.290 20.000,21.290 C20.712,21.290 21.292,20.710 21.292,19.998 C21.292,19.286 20.712,18.706 20.000,18.706 ZM22.689,15.341 L20.991,16.983 L20.764,17.655 C21.094,17.763 21.394,17.938 21.647,18.165 L22.115,17.632 L22.689,15.341 ZM31.928,31.926 C28.742,35.112 24.506,36.868 20.000,36.868 C15.494,36.868 11.258,35.112 8.072,31.926 C4.886,28.740 3.131,24.504 3.131,19.998 C3.131,15.492 4.886,11.256 8.072,8.070 C11.258,4.884 15.494,3.129 20.000,3.129 C23.269,3.129 26.440,4.067 29.171,5.838 C29.442,6.015 29.520,6.378 29.343,6.650 C29.167,6.922 28.803,6.999 28.531,6.823 C25.992,5.175 23.042,4.304 20.000,4.304 C11.346,4.304 4.305,11.344 4.305,19.998 C4.305,28.652 11.346,35.693 20.000,35.693 C28.654,35.693 35.695,28.653 35.695,19.998 C35.695,15.659 33.963,11.621 30.818,8.628 C30.584,8.405 30.574,8.033 30.798,7.798 C31.021,7.563 31.393,7.554 31.628,7.778 C33.266,9.337 34.555,11.174 35.459,13.237 C36.394,15.373 36.869,17.648 36.869,19.998 C36.869,24.504 35.114,28.740 31.928,31.926 Z"/>
</svg>