<svg 
 xmlns="http://www.w3.org/2000/svg"
 xmlns:xlink="http://www.w3.org/1999/xlink"
 width="40px" height="40px">
<path fill-rule="evenodd"  fill="rgb(85, 92, 85)"
 d="M26.153,37.234 C26.004,37.299 25.831,37.299 25.681,37.234 C20.780,35.084 17.393,31.040 15.614,25.215 C14.914,22.924 14.477,20.427 14.314,17.793 C14.290,17.404 14.662,17.094 15.041,17.187 C16.741,17.605 18.563,17.816 20.457,17.816 C22.741,17.816 24.537,17.116 25.642,16.529 C25.808,16.441 26.007,16.438 26.176,16.520 C27.379,17.111 29.241,17.816 31.278,17.816 C33.172,17.816 34.994,17.605 36.695,17.187 C37.073,17.094 37.445,17.405 37.421,17.793 C37.259,20.427 36.821,22.924 36.122,25.215 C34.332,31.073 30.978,35.117 26.153,37.234 ZM25.330,17.980 C24.118,18.505 22.457,18.991 20.457,18.991 C18.756,18.991 17.107,18.827 15.543,18.504 C15.733,20.758 16.133,22.897 16.737,24.872 C16.946,25.557 17.178,26.215 17.434,26.847 L25.330,26.847 L25.330,17.980 ZM25.330,28.021 L17.951,28.021 C19.627,31.538 22.098,34.135 25.330,35.769 L25.330,28.021 ZM34.999,24.872 C35.602,22.897 36.003,20.758 36.192,18.504 C34.628,18.827 32.979,18.991 31.278,18.991 C29.455,18.991 27.776,18.490 26.504,17.958 L26.504,26.847 L34.304,26.847 C34.558,26.215 34.789,25.557 34.999,24.872 ZM26.504,28.021 L26.504,35.768 C29.683,34.152 32.123,31.556 33.791,28.021 L26.504,28.021 ZM36.893,30.052 C36.750,30.337 36.392,30.457 36.106,30.314 C35.820,30.172 35.700,29.813 35.843,29.527 C37.251,26.708 38.874,21.954 38.824,15.081 C37.424,15.719 34.771,16.486 31.278,16.486 C28.879,16.486 26.701,15.339 25.867,14.839 C25.066,15.388 23.131,16.486 20.457,16.486 C16.966,16.486 14.313,15.719 12.913,15.081 C12.881,21.396 14.306,34.278 25.868,38.771 C29.376,37.407 32.231,35.150 34.355,32.060 C34.538,31.793 34.904,31.725 35.171,31.909 C35.438,32.092 35.506,32.458 35.323,32.725 C33.051,36.030 29.994,38.440 26.234,39.888 C26.027,40.035 25.708,40.041 25.502,39.888 C23.441,39.094 21.589,38.009 19.962,36.647 L19.962,39.410 C19.962,39.734 19.699,39.997 19.375,39.997 L0.587,39.997 C0.263,39.997 -0.000,39.734 -0.000,39.410 L-0.000,0.587 C-0.000,0.262 0.263,-0.001 0.587,-0.001 L19.375,-0.001 C19.699,-0.001 19.962,0.262 19.962,0.587 L19.962,15.306 C20.125,15.309 20.290,15.312 20.457,15.312 C23.335,15.312 25.265,13.838 25.475,13.671 C25.677,13.510 25.961,13.499 26.173,13.645 C26.197,13.661 28.647,15.312 31.278,15.312 C35.642,15.312 38.575,14.006 39.015,13.637 C39.384,13.328 39.965,13.590 39.979,14.069 C40.207,21.715 38.427,26.980 36.893,30.052 ZM16.283,14.894 L16.283,11.819 L3.679,11.819 L3.679,15.654 L11.737,15.654 C11.734,15.130 11.740,14.602 11.756,14.069 C11.770,13.590 12.351,13.328 12.720,13.637 C12.999,13.871 14.277,14.479 16.283,14.894 ZM1.174,38.823 L18.788,38.823 L18.788,35.731 C18.788,35.682 18.794,35.636 18.805,35.591 C18.283,35.074 17.787,34.527 17.321,33.946 C16.098,32.424 15.064,30.676 14.229,28.726 L3.092,28.726 C2.768,28.726 2.505,28.463 2.505,28.139 C2.505,27.815 2.768,27.551 3.092,27.551 L13.761,27.551 C13.567,27.029 13.385,26.494 13.218,25.946 C13.182,25.830 13.149,25.712 13.115,25.595 L3.092,25.595 C2.768,25.595 2.505,25.332 2.505,25.008 C2.505,24.683 2.768,24.421 3.092,24.421 L12.795,24.421 C12.635,23.779 12.491,23.127 12.367,22.464 L3.092,22.464 C2.768,22.464 2.505,22.201 2.505,21.877 C2.505,21.552 2.768,21.290 3.092,21.290 L12.170,21.290 C12.041,20.445 11.940,19.584 11.869,18.706 L1.174,18.706 L1.174,38.823 ZM18.788,1.174 L1.174,1.174 L1.174,8.766 L18.788,8.766 L18.788,8.766 L18.788,1.174 ZM18.788,9.940 L1.174,9.940 L1.174,17.533 L11.792,17.533 C11.780,17.299 11.770,17.064 11.762,16.828 L3.092,16.828 C2.768,16.828 2.505,16.565 2.505,16.241 L2.505,11.232 C2.505,10.907 2.768,10.645 3.092,10.645 L16.870,10.645 C17.194,10.645 17.457,10.907 17.457,11.232 L17.457,15.100 C17.877,15.160 18.322,15.210 18.788,15.247 L18.788,15.247 L18.788,9.940 ZM16.870,8.062 L3.092,8.062 C2.768,8.062 2.505,7.799 2.505,7.474 L2.505,2.465 C2.505,2.140 2.768,1.878 3.092,1.878 L16.870,1.878 C17.194,1.878 17.457,2.140 17.457,2.465 L17.457,7.474 C17.457,7.799 17.194,8.062 16.870,8.062 ZM16.283,3.052 L3.679,3.052 L3.679,6.887 L16.283,6.887 L16.283,3.052 ZM9.981,30.682 C11.686,30.682 13.073,32.069 13.073,33.774 C13.073,35.479 11.686,36.866 9.981,36.866 C8.276,36.866 6.889,35.479 6.889,33.774 C6.889,32.069 8.276,30.682 9.981,30.682 ZM9.981,35.692 C11.038,35.692 11.899,34.831 11.899,33.774 C11.899,32.921 11.339,32.197 10.568,31.949 L10.568,33.148 C10.568,33.472 10.305,33.735 9.981,33.735 C9.657,33.735 9.394,33.472 9.394,33.148 L9.394,31.949 C8.622,32.197 8.063,32.921 8.063,33.774 C8.063,34.831 8.923,35.692 9.981,35.692 Z"/>
</svg>