<svg 
 xmlns="http://www.w3.org/2000/svg"
 xmlns:xlink="http://www.w3.org/1999/xlink"
 width="30px" height="29px">
<path fill-rule="evenodd"  fill="rgb(255, 108, 0)"
 d="M29.935,22.259 C29.683,21.433 29.230,20.682 28.617,20.074 C27.640,19.092 26.310,18.541 24.925,18.545 C24.217,18.546 23.516,18.689 22.865,18.967 L17.729,13.834 L24.548,7.068 L26.163,7.023 C26.358,7.017 26.537,6.911 26.637,6.743 L28.948,2.859 C29.082,2.635 29.047,2.348 28.862,2.163 L26.865,0.166 C26.680,-0.018 26.393,-0.053 26.169,0.081 L22.283,2.391 C22.115,2.491 22.009,2.669 22.003,2.864 L21.957,4.473 L15.155,11.261 L10.487,6.595 C10.978,3.754 9.071,1.054 6.229,0.564 C4.913,0.337 3.559,0.624 2.447,1.364 C2.186,1.541 2.117,1.895 2.294,2.156 C2.344,2.230 2.410,2.290 2.487,2.334 L5.078,3.777 C5.648,4.102 5.763,5.072 5.300,5.893 C4.838,6.715 3.954,7.137 3.377,6.817 L0.975,5.517 C0.699,5.365 0.352,5.466 0.200,5.742 C0.147,5.837 0.123,5.945 0.130,6.053 C0.311,8.930 2.790,11.116 5.668,10.935 C6.263,10.898 6.847,10.759 7.395,10.525 L11.640,14.769 L9.803,16.606 L9.386,16.195 C8.925,15.754 8.198,15.754 7.737,16.195 L7.166,16.765 C6.732,17.189 6.704,17.878 7.104,18.334 L0.353,25.071 C-0.102,25.506 -0.118,26.229 0.317,26.684 C0.329,26.696 0.341,26.708 0.353,26.719 L2.282,28.647 C2.717,29.103 3.440,29.118 3.895,28.683 C3.907,28.671 3.919,28.659 3.931,28.647 L10.687,21.899 C11.144,22.299 11.833,22.271 12.256,21.837 L12.827,21.266 C13.283,20.831 13.298,20.108 12.863,19.653 C12.851,19.641 12.839,19.629 12.827,19.618 L12.411,19.201 L14.237,17.336 L19.772,22.869 C19.294,25.712 21.211,28.404 24.055,28.882 C25.739,29.165 27.456,28.606 28.651,27.387 C28.861,27.151 28.840,26.791 28.604,26.581 C28.544,26.527 28.472,26.487 28.394,26.463 L25.182,25.601 C24.867,25.500 24.617,25.257 24.508,24.945 C24.341,24.515 24.321,24.042 24.451,23.599 C24.691,22.704 25.450,22.065 26.089,22.236 L29.267,23.091 C29.318,23.099 29.370,23.099 29.421,23.091 C29.737,23.095 29.995,22.843 29.999,22.528 C30.000,22.434 29.978,22.342 29.935,22.259 ZM22.910,5.106 C23.013,5.003 23.072,4.864 23.076,4.718 L23.121,3.195 L26.357,1.273 L27.727,2.642 L25.843,5.871 L24.291,5.928 C24.146,5.931 24.007,5.990 23.903,6.093 L16.941,13.046 L15.960,12.065 L22.910,5.106 ZM3.121,27.837 L1.163,25.892 L7.948,19.127 L8.930,20.108 L9.865,21.078 L3.121,27.837 ZM11.469,20.992 L10.716,20.234 L10.425,19.943 L8.028,17.530 L8.599,16.959 L12.022,20.428 L11.469,20.992 ZM11.577,18.391 L10.596,17.410 L12.433,15.573 L13.415,16.554 L11.577,18.391 ZM26.368,21.135 C26.199,21.089 26.024,21.066 25.849,21.066 C24.605,21.167 23.578,22.079 23.333,23.302 C23.138,23.989 23.176,24.722 23.441,25.385 C23.686,26.023 24.216,26.509 24.873,26.696 L26.996,27.267 C25.060,28.420 22.556,27.786 21.403,25.851 C20.861,24.942 20.694,23.859 20.936,22.829 C20.979,22.637 20.921,22.437 20.782,22.299 L7.920,9.430 C7.737,9.258 7.464,9.226 7.246,9.350 C6.657,9.661 6.001,9.823 5.335,9.823 C3.618,9.825 2.084,8.751 1.500,7.137 L2.801,7.861 C3.104,8.031 3.446,8.119 3.794,8.118 C4.850,8.057 5.795,7.440 6.276,6.498 C7.052,5.112 6.750,3.463 5.608,2.824 L3.948,1.883 C6.070,1.126 8.405,2.231 9.163,4.352 C9.426,5.088 9.472,5.885 9.295,6.646 C9.251,6.838 9.310,7.038 9.449,7.177 L22.340,20.057 C22.516,20.233 22.786,20.275 23.007,20.159 C23.597,19.849 24.253,19.686 24.919,19.686 C26.364,19.685 27.702,20.449 28.434,21.694 L26.368,21.135 Z"/>
</svg>