<svg 
 xmlns="http://www.w3.org/2000/svg"
 xmlns:xlink="http://www.w3.org/1999/xlink"
 width="77px" height="80px">
<path fill-rule="evenodd"  fill="rgb(93, 189, 83)"
 d="M65.724,65.119 C59.034,71.747 50.316,75.633 40.957,76.213 L43.102,78.338 L41.425,80.000 L36.497,75.117 L41.425,70.235 L43.102,71.896 L41.133,73.846 C46.403,73.468 51.363,71.967 55.769,69.581 L53.313,65.440 L55.357,64.249 L57.811,68.386 C62.299,65.563 66.118,61.788 68.978,57.348 L64.807,54.907 L66.014,52.884 L70.187,55.327 C72.838,50.547 74.418,45.105 74.607,39.320 L69.755,39.320 L69.755,36.971 L74.607,36.971 C74.419,31.215 72.854,25.799 70.227,21.036 L66.047,23.469 L64.846,21.443 L69.022,19.012 C66.172,14.566 62.362,10.781 57.881,7.949 L55.417,12.080 L53.376,10.885 L55.841,6.750 C51.016,4.124 45.524,2.558 39.686,2.371 L39.686,7.178 L37.314,7.178 L37.314,2.370 C31.506,2.557 26.039,4.107 21.231,6.710 L23.688,10.851 L21.643,12.042 L19.189,7.905 C14.702,10.728 10.882,14.503 8.023,18.942 L12.193,21.383 L10.987,23.407 L6.814,20.964 C4.162,25.744 2.582,31.186 2.393,36.970 L7.245,36.970 L7.245,39.320 L2.392,39.320 C2.545,44.077 3.625,48.669 5.612,52.985 L3.454,53.960 C1.162,48.981 -0.000,43.660 -0.000,38.146 C-0.000,27.957 4.004,18.377 11.276,11.172 C18.548,3.967 28.216,-0.000 38.500,-0.000 C48.784,-0.000 58.452,3.967 65.724,11.172 C72.995,18.377 77.000,27.957 77.000,38.146 C77.000,48.335 72.995,57.914 65.724,65.119 ZM13.634,47.142 L15.857,46.324 L18.399,53.100 L16.176,53.918 L13.634,47.142 ZM2.904,70.730 C3.227,70.156 3.664,69.624 4.215,69.135 C4.766,68.646 5.459,68.165 6.295,67.695 C7.188,67.206 7.933,66.801 8.532,66.481 C9.130,66.161 9.605,65.879 9.956,65.634 C10.308,65.390 10.559,65.168 10.711,64.971 C10.863,64.773 10.939,64.543 10.939,64.279 C10.939,63.752 10.749,63.328 10.370,63.008 C9.989,62.689 9.448,62.529 8.745,62.529 C7.948,62.529 7.254,62.722 6.666,63.107 C6.076,63.493 5.507,63.997 4.956,64.618 L2.049,61.287 C2.353,60.948 2.762,60.618 3.275,60.298 C3.787,59.979 4.367,59.692 5.013,59.437 C5.658,59.183 6.366,58.981 7.136,58.830 C7.905,58.680 8.707,58.604 9.543,58.604 C11.595,58.604 13.166,59.047 14.259,59.931 C15.351,60.816 15.898,62.011 15.898,63.517 C15.898,64.138 15.798,64.693 15.598,65.182 C15.399,65.672 15.137,66.110 14.815,66.495 C14.491,66.881 14.131,67.220 13.732,67.511 C13.333,67.803 12.924,68.072 12.507,68.316 C12.222,68.485 11.880,68.683 11.481,68.909 C11.082,69.135 10.687,69.366 10.298,69.600 C9.909,69.836 9.548,70.071 9.215,70.306 C8.883,70.542 8.632,70.754 8.460,70.942 L16.211,70.942 L16.211,75.007 L2.021,75.007 C2.021,74.122 2.087,73.332 2.220,72.635 C2.353,71.939 2.581,71.304 2.904,70.730 ZM28.425,53.465 L31.463,46.893 L33.620,47.871 L30.581,54.444 L28.425,53.465 ZM30.902,58.886 L30.902,70.659 L33.410,70.659 L33.410,74.724 L30.902,74.724 L30.902,78.593 L26.343,78.593 L26.343,74.724 L18.507,74.724 L18.507,70.687 L27.796,58.886 L30.902,58.886 ZM26.885,65.662 L23.010,70.659 L26.885,70.659 L26.885,65.662 ZM45.074,61.411 L38.236,63.930 L37.409,61.727 L44.248,59.209 L45.074,61.411 ZM37.314,33.482 L37.314,12.392 L39.686,12.392 L39.686,33.483 C41.411,33.913 42.772,35.262 43.206,36.971 L57.317,36.971 L57.317,39.320 L43.206,39.320 C42.676,41.406 40.767,42.954 38.500,42.954 C35.824,42.954 33.646,40.797 33.646,38.146 C33.646,35.899 35.209,34.008 37.314,33.482 ZM38.500,40.604 C39.868,40.604 40.982,39.502 40.982,38.146 C40.982,36.790 39.868,35.687 38.500,35.687 C37.132,35.687 36.018,36.790 36.018,38.146 C36.018,39.502 37.132,40.604 38.500,40.604 Z"/>
</svg>