<svg 
 xmlns="http://www.w3.org/2000/svg"
 xmlns:xlink="http://www.w3.org/1999/xlink"
 width="55px" height="40px">
<path fill-rule="evenodd"  fill="rgb(85, 92, 85)"
 d="M54.986,35.348 C55.028,35.581 54.965,35.876 54.814,36.058 C54.663,36.240 54.440,36.399 54.205,36.399 L48.267,36.399 C47.924,36.399 47.620,36.122 47.513,35.794 C45.010,28.103 39.623,22.622 32.734,20.853 C32.424,20.772 32.192,20.513 32.145,20.195 C32.097,19.876 32.244,19.560 32.517,19.393 C35.155,17.778 36.284,14.152 36.217,11.467 C36.158,9.139 35.419,4.861 31.136,2.372 C30.859,2.212 30.704,1.898 30.745,1.578 C30.785,1.258 31.013,0.994 31.321,0.908 C32.086,0.696 32.800,0.554 33.802,0.554 C39.493,0.554 44.122,5.220 44.122,10.956 C44.122,14.139 42.681,17.107 40.269,19.062 C47.911,21.381 53.602,27.607 54.986,35.348 ZM38.189,20.228 C37.865,20.157 37.618,19.837 37.571,19.506 C37.523,19.175 37.685,18.850 37.976,18.690 C40.788,17.144 42.535,14.183 42.535,10.959 C42.535,6.106 38.618,2.161 33.803,2.161 C33.734,2.161 33.667,2.169 33.602,2.171 C36.231,4.371 37.706,7.607 37.804,11.454 C37.895,15.096 36.419,18.068 34.630,19.804 C41.170,22.018 46.278,27.200 48.836,34.800 L48.836,34.800 L53.231,34.800 C51.555,27.601 45.746,21.870 38.189,20.228 ZM30.811,20.761 C39.465,23.316 45.920,30.328 47.481,39.059 C47.522,39.292 47.459,39.532 47.308,39.713 C47.157,39.895 46.935,40.000 46.699,40.000 L0.795,40.000 C0.559,40.000 0.337,39.895 0.186,39.713 C0.035,39.532 -0.028,39.292 0.014,39.059 C1.576,30.328 8.031,23.316 16.682,20.761 C13.905,18.583 12.239,15.217 12.239,11.602 C12.239,5.204 17.402,-0.001 23.749,-0.001 C30.095,-0.001 35.258,5.204 35.258,11.602 C35.258,15.217 33.591,18.582 30.811,20.761 ZM23.749,1.600 C18.277,1.600 13.827,6.086 13.827,11.601 C13.827,15.265 15.810,18.630 19.003,20.386 C19.294,20.546 19.456,20.871 19.408,21.203 C19.361,21.533 19.114,21.799 18.790,21.870 C10.211,23.736 3.625,30.000 1.766,38.400 L45.728,38.400 C43.871,30.000 37.285,23.736 28.704,21.870 C28.379,21.799 28.133,21.534 28.085,21.203 C28.038,20.872 28.200,20.546 28.491,20.386 C31.686,18.630 33.671,15.264 33.671,11.602 C33.671,6.086 29.220,1.600 23.749,1.600 Z"/>
</svg>