<svg 
 xmlns="http://www.w3.org/2000/svg"
 xmlns:xlink="http://www.w3.org/1999/xlink"
 width="22px" height="40px">
<path fill-rule="evenodd"  fill="rgb(144, 95, 54)"
 d="M21.710,26.295 C21.424,25.798 20.966,25.444 20.418,25.298 C20.073,25.206 19.719,25.204 19.381,25.288 L19.463,24.984 C19.613,24.428 19.541,23.847 19.261,23.347 C18.981,22.847 18.526,22.487 17.981,22.335 C17.920,22.318 17.858,22.304 17.797,22.293 L17.797,17.447 C17.797,14.454 15.547,11.987 12.678,11.702 L12.678,8.857 C12.678,7.577 11.655,6.536 10.397,6.536 L2.280,6.536 C1.634,6.536 1.108,6.001 1.108,5.343 C1.108,4.685 1.634,4.151 2.280,4.151 L19.064,4.151 C20.321,4.151 21.344,3.109 21.344,1.830 L21.344,0.563 C21.344,0.252 21.096,-0.000 20.790,-0.000 C20.484,-0.000 20.236,0.252 20.236,0.563 L20.236,1.830 C20.236,2.488 19.710,3.023 19.064,3.023 L2.280,3.023 C1.023,3.023 -0.001,4.064 -0.001,5.343 C-0.001,6.623 1.023,7.664 2.280,7.664 L10.397,7.664 C11.044,7.664 11.570,8.199 11.570,8.857 L11.570,11.702 C8.701,11.987 6.451,14.454 6.451,17.447 L6.451,25.723 C5.494,25.982 4.786,26.871 4.786,27.926 L4.786,33.483 C4.786,36.493 6.887,39.130 9.781,39.753 C9.819,39.761 9.858,39.765 9.896,39.765 C10.152,39.765 10.382,39.583 10.438,39.318 C10.501,39.013 10.310,38.714 10.010,38.650 C7.625,38.137 5.894,35.964 5.894,33.483 L5.894,27.926 C5.894,27.290 6.402,26.774 7.026,26.774 C7.651,26.774 8.159,27.290 8.159,27.926 L8.159,32.338 C8.159,32.649 8.407,32.902 8.713,32.902 C9.019,32.902 9.267,32.649 9.267,32.338 L9.267,17.110 C9.267,16.543 9.720,16.082 10.277,16.082 C10.834,16.082 11.287,16.543 11.287,17.110 L11.287,27.532 C11.287,27.844 11.535,28.096 11.841,28.096 C12.147,28.096 12.395,27.844 12.395,27.532 L12.395,17.110 L12.395,16.405 C12.395,15.839 12.848,15.377 13.405,15.377 C13.962,15.377 14.416,15.839 14.416,16.405 L14.416,27.490 C14.416,27.773 14.621,28.012 14.896,28.049 C15.171,28.087 15.430,27.912 15.504,27.640 L16.447,24.142 C16.594,23.595 17.150,23.272 17.688,23.422 C17.948,23.495 18.165,23.666 18.299,23.905 C18.432,24.144 18.466,24.421 18.395,24.685 L17.279,28.826 C17.198,29.126 17.372,29.436 17.667,29.519 C17.716,29.533 17.765,29.539 17.814,29.539 C18.057,29.539 18.280,29.374 18.348,29.124 C18.348,29.124 18.892,27.170 18.904,27.122 C18.973,26.857 19.139,26.634 19.372,26.496 C19.605,26.357 19.877,26.319 20.138,26.389 C20.399,26.458 20.617,26.627 20.754,26.864 C20.890,27.101 20.927,27.378 20.859,27.643 L18.958,34.825 C18.521,36.429 17.662,37.882 16.474,39.027 C16.252,39.241 16.243,39.598 16.453,39.823 C16.562,39.941 16.708,40.000 16.855,40.000 C16.992,40.000 17.129,39.949 17.236,39.845 C18.570,38.559 19.535,36.928 20.025,35.126 L21.931,27.929 C22.074,27.372 21.995,26.791 21.710,26.295 ZM7.559,25.712 L7.559,19.517 L8.159,19.517 L8.159,25.960 C7.974,25.850 7.772,25.765 7.559,25.712 ZM10.277,14.955 C9.109,14.955 8.159,15.922 8.159,17.110 L8.159,18.389 L7.559,18.389 L7.559,17.447 C7.559,15.076 9.313,13.116 11.570,12.837 C11.570,12.837 11.579,15.365 11.570,15.382 C11.217,15.114 10.750,14.955 10.277,14.955 ZM13.405,14.250 C13.150,14.250 12.905,14.296 12.678,14.381 L12.678,12.837 C14.935,13.116 16.689,15.076 16.689,17.447 L16.689,18.389 L15.523,18.389 L15.523,16.405 C15.523,15.217 14.573,14.250 13.405,14.250 ZM15.523,23.455 L15.523,19.517 L16.689,19.517 L16.689,22.392 C16.191,22.580 15.768,22.954 15.523,23.455 Z"/>
</svg>