<svg 
 xmlns="http://www.w3.org/2000/svg"
 xmlns:xlink="http://www.w3.org/1999/xlink"
 width="40px" height="40px">
<path fill-rule="evenodd"  fill="rgb(93, 189, 83)"
 d="M38.828,23.515 C38.180,23.515 37.656,22.991 37.656,22.343 L37.656,21.171 L32.863,21.171 C32.778,21.763 32.572,22.347 32.358,22.908 C31.927,24.046 31.236,25.034 30.387,25.859 L34.141,25.859 C36.079,25.859 37.656,27.436 37.656,29.374 L37.656,33.184 C39.017,33.669 40.000,34.958 40.000,36.484 C40.000,38.422 38.423,40.000 36.484,40.000 C34.546,40.000 32.969,38.422 32.969,36.484 C32.969,34.958 33.951,33.669 35.312,33.184 L35.312,29.374 C35.312,28.728 34.787,28.203 34.141,28.203 L28.203,28.203 L28.203,29.374 C28.203,31.313 26.626,32.968 24.687,32.968 C22.349,32.968 21.039,32.968 20.346,32.968 C20.350,32.968 20.178,32.968 19.653,32.968 C18.959,32.968 17.650,32.968 15.312,32.968 C13.374,32.968 11.797,31.313 11.797,29.374 L11.797,28.203 L5.859,28.203 C5.213,28.203 4.687,28.728 4.687,29.374 L4.687,33.184 C6.049,33.669 7.031,34.958 7.031,36.484 C7.031,38.422 5.454,40.000 3.516,40.000 C1.577,40.000 -0.000,38.422 -0.000,36.484 C-0.000,34.958 0.983,33.669 2.344,33.184 L2.344,29.374 C2.344,27.436 3.921,25.859 5.859,25.859 L9.522,25.859 C8.248,24.609 7.408,22.965 7.146,21.171 L2.344,21.171 L2.344,22.343 C2.344,22.991 1.819,23.515 1.172,23.515 C0.524,23.515 -0.000,22.991 -0.000,22.343 L-0.000,17.656 C-0.000,17.008 0.524,16.484 1.172,16.484 C1.819,16.484 2.344,17.008 2.344,17.656 L2.344,18.828 L7.127,18.828 C7.252,17.168 7.714,15.579 8.452,14.132 L5.859,14.132 C3.921,14.132 2.344,12.563 2.344,10.625 L2.344,6.815 C0.983,6.329 -0.000,5.041 -0.000,3.515 C-0.000,1.577 1.577,-0.000 3.516,-0.000 C5.454,-0.000 7.031,1.577 7.031,3.515 C7.031,5.041 6.049,6.329 4.687,6.815 L4.687,10.625 C4.687,11.271 5.213,11.796 5.859,11.796 L9.951,11.796 C12.385,8.838 16.026,7.028 20.000,7.033 C23.723,7.038 27.354,8.690 29.928,11.796 L34.141,11.796 C34.787,11.796 35.312,11.271 35.312,10.625 L35.312,6.815 C33.951,6.329 32.969,5.041 32.969,3.515 C32.969,1.577 34.546,-0.000 36.484,-0.000 C38.423,-0.000 40.000,1.577 40.000,3.515 C40.000,5.041 39.017,6.329 37.656,6.815 L37.656,10.625 C37.656,12.563 36.079,14.140 34.141,14.140 L31.470,14.140 C32.212,15.590 32.754,17.174 32.903,18.828 L37.656,18.828 L37.656,17.656 C37.656,17.008 38.180,16.484 38.828,16.484 C39.476,16.484 40.000,17.008 40.000,17.656 L40.000,22.343 C40.000,22.991 39.476,23.515 38.828,23.515 ZM36.484,37.656 C37.131,37.656 37.656,37.131 37.656,36.484 C37.656,35.837 37.131,35.312 36.484,35.312 C35.838,35.312 35.312,35.837 35.312,36.484 C35.312,37.131 35.838,37.656 36.484,37.656 ZM3.516,35.312 C2.869,35.312 2.344,35.837 2.344,36.484 C2.344,37.131 2.869,37.656 3.516,37.656 C4.162,37.656 4.687,37.131 4.687,36.484 C4.687,35.837 4.162,35.312 3.516,35.312 ZM3.516,2.343 C2.869,2.343 2.344,2.869 2.344,3.515 C2.344,4.162 2.869,4.687 3.516,4.687 C4.162,4.687 4.687,4.162 4.687,3.515 C4.687,2.869 4.162,2.343 3.516,2.343 ZM36.484,4.687 C37.131,4.687 37.656,4.162 37.656,3.515 C37.656,2.869 37.131,2.343 36.484,2.343 C35.838,2.343 35.312,2.869 35.312,3.515 C35.312,4.162 35.838,4.687 36.484,4.687 ZM19.973,9.379 C13.989,9.379 9.524,14.231 9.399,19.554 C9.218,22.219 10.894,24.653 13.358,25.526 C13.822,25.689 14.136,26.127 14.141,26.620 L14.141,29.374 C14.141,30.021 14.666,30.624 15.312,30.624 L16.484,30.624 L16.484,27.031 C16.484,26.383 17.009,25.859 17.656,25.859 C18.303,25.859 18.828,26.383 18.828,27.031 L18.828,30.624 L21.172,30.624 L21.172,27.031 C21.172,26.383 21.697,25.859 22.344,25.859 C22.991,25.859 23.516,26.383 23.516,27.031 L23.516,30.624 L24.687,30.624 C25.334,30.624 25.859,30.021 25.859,29.374 L25.859,26.623 C25.859,26.126 26.173,25.683 26.643,25.518 C28.269,24.945 29.555,23.693 30.168,22.078 C30.420,21.414 30.547,20.716 30.547,19.999 C30.547,14.176 25.842,9.379 19.973,9.379 ZM24.687,23.515 C22.749,23.515 21.172,21.938 21.172,19.999 C21.172,19.556 21.422,19.150 21.820,18.951 L26.507,16.607 C26.870,16.427 27.300,16.443 27.647,16.659 C27.992,16.873 28.203,17.250 28.203,17.656 L28.203,19.999 C28.203,21.938 26.626,23.515 24.687,23.515 ZM25.859,19.552 L23.701,20.631 C23.909,20.956 24.273,21.171 24.687,21.171 C25.334,21.171 25.859,20.646 25.859,19.999 L25.859,19.552 ZM15.312,23.515 C13.374,23.515 11.797,21.938 11.797,19.999 L11.797,17.656 C11.797,17.250 12.007,16.873 12.353,16.659 C12.699,16.445 13.130,16.428 13.493,16.607 L18.180,18.951 C18.577,19.150 18.828,19.556 18.828,19.999 C18.828,21.938 17.251,23.515 15.312,23.515 ZM14.141,19.552 L14.141,19.999 C14.141,20.646 14.666,21.171 15.312,21.171 C15.727,21.171 16.091,20.956 16.299,20.631 L14.141,19.552 Z"/>
</svg>