<svg 
 xmlns="http://www.w3.org/2000/svg"
 xmlns:xlink="http://www.w3.org/1999/xlink"
 width="80px" height="80px">
<path fill-rule="evenodd"  fill="rgb(255, 108, 0)"
 d="M68.284,68.283 C60.729,75.837 50.684,79.998 40.000,79.998 C29.315,79.998 19.271,75.837 11.715,68.283 C4.160,60.727 -0.000,50.683 -0.000,39.997 C-0.000,29.312 4.160,19.268 11.715,11.713 C19.271,4.158 29.315,-0.002 40.000,-0.002 C50.684,-0.002 60.729,4.158 68.284,11.713 C75.839,19.268 80.000,29.312 80.000,39.997 C80.000,50.683 75.839,60.727 68.284,68.283 ZM40.000,2.346 C19.239,2.346 2.348,19.237 2.348,39.997 C2.348,60.760 19.239,77.649 40.000,77.649 C60.761,77.649 77.652,60.760 77.652,39.997 C77.652,19.237 60.761,2.346 40.000,2.346 ZM55.540,45.654 C55.762,45.044 56.435,44.730 57.046,44.953 L63.703,47.375 C64.220,47.564 64.544,48.104 64.463,48.649 C64.379,49.219 63.877,49.654 63.301,49.654 C63.168,49.654 63.033,49.631 62.900,49.582 L56.242,47.160 C55.633,46.937 55.319,46.264 55.540,45.654 ZM56.704,58.363 L51.694,53.352 C51.235,52.895 51.235,52.150 51.694,51.692 C52.153,51.233 52.896,51.233 53.355,51.692 L58.364,56.701 C58.792,57.129 58.820,57.836 58.427,58.294 C57.988,58.808 57.181,58.839 56.704,58.363 ZM40.052,66.220 L40.000,66.221 C25.540,66.221 13.776,54.457 13.776,39.997 C13.776,25.538 25.540,13.774 40.000,13.774 C46.976,13.774 53.541,16.483 58.488,21.402 C63.432,26.318 66.178,32.864 66.221,39.834 C66.222,40.147 66.100,40.447 65.879,40.670 C65.659,40.890 65.359,41.015 65.047,41.015 L58.784,41.015 C58.140,41.015 57.616,40.495 57.610,39.850 C57.531,30.220 49.631,22.385 40.000,22.385 C30.288,22.385 22.387,30.287 22.387,39.997 C22.387,49.709 30.287,57.609 39.998,57.610 L40.052,57.609 C40.701,57.609 41.226,58.135 41.226,58.784 L41.226,65.045 C41.226,65.695 40.701,66.220 40.052,66.220 ZM38.877,59.928 C28.391,59.344 20.039,50.629 20.039,39.997 C20.039,28.991 28.993,20.036 40.000,20.036 C45.302,20.036 50.295,22.094 54.059,25.829 C57.543,29.287 59.598,33.809 59.916,38.667 L63.836,38.667 C63.142,26.131 52.687,16.123 40.000,16.123 C26.835,16.123 16.125,26.833 16.125,39.997 C16.125,52.786 26.232,63.259 38.877,63.847 L38.877,59.928 ZM45.656,55.539 C46.266,55.316 46.939,55.631 47.161,56.241 L49.584,62.898 C49.791,63.467 49.517,64.121 48.964,64.370 C48.349,64.646 47.608,64.333 47.378,63.701 L44.955,57.043 C44.733,56.434 45.047,55.760 45.656,55.539 ZM40.000,44.930 C37.281,44.930 35.068,42.716 35.068,39.997 C35.068,37.585 36.811,35.572 39.104,35.149 L39.850,32.946 C39.909,32.768 40.011,32.608 40.145,32.477 L46.698,26.138 C47.077,25.772 47.671,25.705 48.122,25.977 C48.558,26.239 48.777,26.773 48.654,27.267 L46.439,36.113 C46.394,36.294 46.306,36.460 46.182,36.602 L44.647,38.349 C44.831,38.865 44.932,39.420 44.932,39.997 C44.932,42.716 42.719,44.930 40.000,44.930 ZM40.000,37.414 C38.576,37.414 37.417,38.573 37.417,39.997 C37.417,41.422 38.575,42.581 40.000,42.581 C41.424,42.581 42.583,41.422 42.583,39.997 C42.583,38.573 41.424,37.414 40.000,37.414 ZM45.378,30.683 L41.983,33.967 L41.529,35.311 C42.189,35.526 42.788,35.877 43.293,36.331 L44.230,35.265 L45.378,30.683 ZM63.856,63.853 C57.484,70.225 49.011,73.736 40.000,73.736 C30.988,73.736 22.516,70.225 16.143,63.853 C9.771,57.482 6.262,49.009 6.262,39.997 C6.262,30.986 9.771,22.514 16.143,16.142 C22.516,9.769 30.988,6.260 40.000,6.260 C46.538,6.260 52.880,8.134 58.341,11.677 C58.885,12.031 59.040,12.757 58.687,13.300 C58.334,13.844 57.606,14.000 57.063,13.646 C51.984,10.350 46.083,8.608 40.000,8.608 C22.692,8.608 8.610,22.690 8.610,39.997 C8.610,57.305 22.692,71.387 40.000,71.387 C57.308,71.387 71.389,57.307 71.389,39.997 C71.389,31.319 67.926,23.242 61.637,17.256 C61.167,16.810 61.149,16.067 61.596,15.597 C62.043,15.127 62.786,15.109 63.256,15.556 C66.533,18.674 69.110,22.348 70.917,26.474 C72.789,30.747 73.737,35.297 73.737,39.997 C73.737,49.009 70.228,57.482 63.856,63.853 Z"/>
</svg>