<svg 
 xmlns="http://www.w3.org/2000/svg"
 xmlns:xlink="http://www.w3.org/1999/xlink"
 width="40px" height="40px">
<path fill-rule="evenodd"  fill="rgb(255, 108, 0)"
 d="M28.496,26.089 C28.745,25.839 29.149,25.839 29.398,26.089 L39.812,36.503 C40.061,36.752 40.061,37.156 39.812,37.405 L37.405,39.812 C37.280,39.937 37.117,40.000 36.954,40.000 C36.790,40.000 36.627,39.937 36.502,39.812 L26.088,29.398 C25.839,29.149 25.839,28.745 26.088,28.496 L26.841,27.743 L25.326,26.229 C22.532,28.802 18.927,30.212 15.106,30.212 C11.071,30.212 7.278,28.641 4.424,25.788 C1.571,22.935 0.000,19.141 0.000,15.106 C0.000,11.071 1.571,7.277 4.424,4.424 C7.278,1.571 11.071,-0.001 15.106,-0.001 C19.141,-0.001 22.934,1.571 25.787,4.424 C28.641,7.277 30.212,11.071 30.212,15.106 C30.212,18.927 28.802,22.532 26.229,25.326 L27.743,26.841 L28.496,26.089 ZM28.935,15.106 C28.935,11.412 27.497,7.939 24.885,5.327 C22.273,2.715 18.800,1.276 15.106,1.276 C11.412,1.276 7.939,2.715 5.327,5.327 C2.715,7.939 1.276,11.412 1.276,15.106 C1.276,18.800 2.715,22.273 5.327,24.885 C7.939,27.497 11.412,28.936 15.106,28.936 C18.800,28.936 22.273,27.497 24.885,24.885 C27.497,22.273 28.935,18.800 28.935,15.106 ZM36.954,38.458 L38.458,36.954 L28.947,27.443 L27.442,28.947 L36.954,38.458 ZM15.106,23.404 C10.531,23.404 6.808,19.682 6.808,15.106 C6.808,10.530 10.531,6.808 15.106,6.808 C19.681,6.808 23.404,10.530 23.404,15.106 C23.404,19.682 19.681,23.404 15.106,23.404 ZM12.235,21.511 C11.334,20.125 10.742,18.084 10.650,15.744 L8.115,15.744 C8.348,18.318 9.976,20.494 12.235,21.511 ZM8.115,14.467 L10.650,14.467 C10.742,12.128 11.334,10.086 12.235,8.701 C9.976,9.717 8.348,11.894 8.115,14.467 ZM14.468,8.245 C13.926,8.514 13.401,9.111 12.969,9.975 C12.364,11.185 12.001,12.762 11.929,14.467 L14.468,14.467 L14.468,8.245 ZM14.468,15.744 L11.929,15.744 C12.002,17.450 12.364,19.027 12.969,20.237 C13.401,21.101 13.926,21.698 14.468,21.966 L14.468,15.744 ZM22.097,15.744 L19.561,15.744 C19.470,18.084 18.877,20.125 17.977,21.511 C20.236,20.494 21.864,18.318 22.097,15.744 ZM15.744,21.966 C16.286,21.698 16.811,21.101 17.243,20.237 C17.848,19.027 18.210,17.450 18.283,15.744 L15.744,15.744 L15.744,21.966 ZM15.744,8.245 L15.744,14.467 L18.283,14.467 C18.210,12.762 17.848,11.185 17.243,9.975 C16.811,9.111 16.286,8.514 15.744,8.245 ZM17.977,8.701 C18.877,10.086 19.470,12.128 19.562,14.467 L22.097,14.467 C21.864,11.894 20.236,9.717 17.977,8.701 ZM15.106,26.802 C12.109,26.802 9.113,25.662 6.832,23.380 C2.269,18.818 2.269,11.394 6.832,6.831 C11.038,2.625 17.718,2.238 22.371,5.932 C22.647,6.151 22.693,6.553 22.474,6.829 C22.255,7.105 21.853,7.151 21.577,6.932 C17.433,3.642 11.482,3.986 7.734,7.734 C3.669,11.799 3.669,18.413 7.734,22.478 C11.799,26.543 18.413,26.543 22.478,22.478 C26.225,18.730 26.570,12.779 23.280,8.634 C23.061,8.358 23.107,7.956 23.383,7.737 C23.659,7.518 24.060,7.564 24.279,7.841 C27.973,12.494 27.587,19.174 23.380,23.380 C21.099,25.662 18.102,26.802 15.106,26.802 Z"/>
</svg>